<?xml version="1.0" encoding="utf-8"?>
<!-- Generator: Adobe Illustrator 15.1.0, SVG Export Plug-In . SVG Version: 6.00 Build 0)  -->
<!DOCTYPE svg PUBLIC "-//W3C//DTD SVG 1.1//EN" "http://www.w3.org/Graphics/SVG/1.1/DTD/svg11.dtd">
<svg version="1.1" id="レイヤー_2" xmlns="http://www.w3.org/2000/svg" xmlns:xlink="http://www.w3.org/1999/xlink" x="0px"
	 y="0px" width="144.628px" height="127.238px" viewBox="1350.534 213.236 144.628 127.238"
	 style="enable-background:new 1350.534 213.236 144.628 127.238;" xml:space="preserve">
<path style="fill:#B3903D;" d="M1351.67,247.171c0,0,3-8.333,12.667-6.333s17.333,13,15.667,23.667s-16.333,8.667-18.333,7
	S1346.67,263.505,1351.67,247.171z"/>
<ellipse transform="matrix(-0.3637 0.9315 -0.9315 -0.3637 2141.8123 -996.7997)" style="fill:#B3903D;" cx="1411.346" cy="233.1" rx="20.577" ry="14.286"/>
<path style="fill:#B3903D;" d="M1468.577,275.72c-5.033,9.462-3.861,19.929,2.615,23.375s15.813-1.433,20.844-10.895
	c5.035-9.467,3.863-19.932-2.615-23.378C1482.946,261.377,1473.61,266.255,1468.577,275.72z"/>
<path style="fill:#B3903D;" d="M1438.237,237.554c-4.33,9.098-1.91,19.293,5.398,22.771c7.313,3.478,16.748-1.077,21.072-10.178
	c4.33-9.099,1.91-19.293-5.4-22.771C1452,223.899,1442.563,228.455,1438.237,237.554z"/>
<path style="fill:#B3903D;" d="M1373.299,309.055c0,0-3.667-17.092,11-26.546s13.56-3.546,20.333-11.455
	c6.774-7.909,6.774-7.909,14.22-6.788c7.445,1.121,24.445,10.206,26.779,22.33c2.332,12.125,4.998,16.125,12.332,22.459
	c7.334,6.332,1,26.666-8,29C1440.965,340.387,1400.299,349.055,1373.299,309.055z"/>
</svg>
