<?xml version="1.0" encoding="utf-8"?>
<!-- Generator: Adobe Illustrator 15.1.0, SVG Export Plug-In . SVG Version: 6.00 Build 0)  -->
<!DOCTYPE svg PUBLIC "-//W3C//DTD SVG 1.1//EN" "http://www.w3.org/Graphics/SVG/1.1/DTD/svg11.dtd">
<svg version="1.1" id="レイヤー_2" xmlns="http://www.w3.org/2000/svg" xmlns:xlink="http://www.w3.org/1999/xlink" x="0px"
	 y="0px" width="144.628px" height="127.238px" viewBox="1350.534 213.236 144.628 127.238"
	 style="enable-background:new 1350.534 213.236 144.628 127.238;" xml:space="preserve">
<path style="fill:#B3903D;" d="M1494.027,306.538c0,0-3,8.333-12.667,6.333s-17.333-13-15.667-23.667s16.333-8.667,18.333-7
	S1499.027,290.204,1494.027,306.538z"/>
<ellipse transform="matrix(0.3637 -0.9315 0.9315 0.3637 613.9887 1540.0999)" style="fill:#B3903D;" cx="1434.35" cy="320.609" rx="20.577" ry="14.286"/>
<path style="fill:#B3903D;" d="M1377.12,277.99c5.033-9.462,3.861-19.929-2.615-23.375s-15.813,1.433-20.844,10.895
	c-5.035,9.467-3.863,19.932,2.615,23.378C1362.75,292.332,1372.086,287.454,1377.12,277.99z"/>
<path style="fill:#B3903D;" d="M1407.459,316.156c4.33-9.098,1.91-19.293-5.398-22.771c-7.313-3.478-16.748,1.077-21.072,10.178
	c-4.33,9.099-1.91,19.293,5.4,22.771C1393.696,329.811,1403.133,325.254,1407.459,316.156z"/>
<path style="fill:#B3903D;" d="M1472.398,244.655c0,0,3.667,17.092-11,26.546s-13.56,3.546-20.333,11.455
	c-6.774,7.909-6.774,7.909-14.221,6.788c-7.445-1.121-24.445-10.206-26.779-22.33c-2.332-12.125-4.998-16.125-12.332-22.459
	c-7.334-6.332-1-26.666,8-29C1404.731,213.323,1445.398,204.655,1472.398,244.655z"/>
</svg>
