<?xml version="1.0" encoding="utf-8"?>
<!-- Generator: Adobe Illustrator 15.1.0, SVG Export Plug-In  -->
<!DOCTYPE svg PUBLIC "-//W3C//DTD SVG 1.1//EN" "http://www.w3.org/Graphics/SVG/1.1/DTD/svg11.dtd" [
	<!ENTITY ns_flows "http://ns.adobe.com/Flows/1.0/">
]>
<svg version="1.1"
	 xmlns="http://www.w3.org/2000/svg" xmlns:xlink="http://www.w3.org/1999/xlink" xmlns:a="http://ns.adobe.com/AdobeSVGViewerExtensions/3.0/"
	 x="0px" y="0px" width="165px" height="165px" viewBox="0.983 0.983 165 165" enable-background="new 0.983 0.983 165 165"
	 xml:space="preserve">
<defs>
</defs>
<rect x="55.122" y="10.054" fill="#FFFFFF" width="57" height="53"/>
<linearGradient id="SVGID_4_" gradientUnits="userSpaceOnUse" x1="0.9829" y1="83.2539" x2="165.522" y2="83.2539">
	<stop  offset="0" style="stop-color:#F4DB8C"/>
	<stop  offset="0" style="stop-color:#F0CC7E"/>
	<stop  offset="0" style="stop-color:#EECA7C"/>
	<stop  offset="0" style="stop-color:#E9C576"/>
	<stop  offset="0.1697" style="stop-color:#EECA7C"/>
	<stop  offset="0.1942" style="stop-color:#EAC678"/>
	<stop  offset="0.448" style="stop-color:#C7A352"/>
	<stop  offset="0.5818" style="stop-color:#B99544"/>
	<stop  offset="0.7212" style="stop-color:#B3903D"/>
	<stop  offset="0.7964" style="stop-color:#B69340"/>
	<stop  offset="0.8588" style="stop-color:#BE9B4B"/>
	<stop  offset="0.9165" style="stop-color:#CDA95C"/>
	<stop  offset="0.9711" style="stop-color:#E1BD74"/>
	<stop  offset="1" style="stop-color:#EFCA84"/>
</linearGradient>
<path fill-rule="evenodd" clip-rule="evenodd" fill="url(#SVGID_4_)" d="M165.522,83.252c0,45.439-36.832,82.272-82.269,82.272
	c-45.438,0-82.27-36.833-82.27-82.272c0-45.436,36.832-82.27,82.27-82.27C128.69,0.983,165.522,37.816,165.522,83.252z
	 M90.122,21.054v-10h-14v10h-9v13h9v11h14v-11h10v-13H90.122z"/>
<g>
	<defs>
		<path id="SVGID_1_" d="M165.522,83.252c0,45.439-36.832,82.272-82.269,82.272c-45.438,0-82.27-36.833-82.27-82.272
			c0-45.436,36.832-82.27,82.27-82.27C128.69,0.983,165.522,37.816,165.522,83.252z M90.122,21.054v-10h-14v10h-9v13h9v11h14v-11h10
			v-13H90.122z"/>
	</defs>
	<clipPath id="SVGID_5_">
		<use xlink:href="#SVGID_1_"  overflow="visible"/>
	</clipPath>
	<path clip-path="url(#SVGID_5_)" fill-rule="evenodd" clip-rule="evenodd" fill="#FFFFFF" d="M114.56,150.685
		c-0.822,0-1.529-0.3-1.892-0.81c-0.213-0.296-0.416-0.809-0.164-1.545c1.323-3.901,2.141-4.641,3.188-4.641
		c0.142,0,0.28,0.017,0.421,0.035c0.098,0.014,0.196,0.027,0.299,0.027c0.172,0,0.576,0,1.328-1.263
		c2.514-4.215,2.339-5.8,2.136-7.637c-0.089-0.809-0.19-1.714-0.066-2.881c-0.965,3.159-1.845,6.171-1.845,6.71
		c0,1.21-0.28,1.623-1.201,1.775c-0.754,0.122-2.321,0.379-5.131,6.249c-0.817,1.703-1.978,2.567-3.449,2.567
		c-0.491,0-0.998-0.096-1.545-0.294c-0.889,0.375-1.758,0.565-2.585,0.565c-0.598,0-1.163-0.1-1.682-0.299
		c-0.298,0.087-0.637,0.135-0.995,0.135c-0.993,0-2.277-0.371-2.756-1.184c-0.244-0.415-0.244-0.886,0-1.324
		c0.073-0.131,0.15-0.28,0.234-0.442c0.664-1.286,1.779-3.436,4.225-3.436c0.196,0,0.404,0.014,0.619,0.044
		c0.18,0.024,0.359,0.038,0.538,0.038c1.333,0,2.692-0.687,3.829-1.936c1.482-1.627,2.282-3.91,2.089-5.957
		c-0.146-1.576,0.458-4.282,1.156-7.416c1.35-6.039,3.027-13.56,0.689-17.753c-7.028-12.595-5.039-16.181-3.585-18.8
		c0.206-0.368,0.4-0.72,0.555-1.081c0.666-1.552,0.742-7.188,0.803-11.716c0.045-3.409,0.086-6.391,0.321-7.976
		c-0.388-0.218-0.785-0.421-1.183-0.624c-1.667-0.853-3.391-1.731-4.3-3.66c-0.246-0.52-0.482-0.62-0.841-0.771
		c-1.271-0.539-2.035-1.324-1.942-7.667c0.026-1.715,2.611-1.715,4.157-1.715c0.346,0,1.69,0.019,2,0.019
		c1.504,0,1.888-0.133,1.983-0.212c0.125-0.313,0.111-0.524,0.095-0.728c-0.045-0.586,0.131-0.924,0.693-1.229
		c-0.559-3.086-0.307-10.542,1.396-12.72c0.463-0.591,0.958-0.717,1.292-0.717c0.212,0,0.428,0.05,0.641,0.145
		c1.661,0.748,2.51,3.698,3.333,6.55c0.416,1.444,1.044,3.626,1.486,3.805c0.483-0.176,1.081-0.26,1.789-0.26
		c0.619,0,1.246,0.062,1.85,0.123c0.568,0.057,1.104,0.111,1.599,0.111c0.91,0,1.479-0.192,1.844-0.625
		c7.7-9.106,9.282-9.106,9.801-9.106c0.406,0,0.653,0.192,0.787,0.352c0.292,0.349,0.364,0.889,0.225,1.705
		c-0.15,0.869-0.232,2.073-0.327,3.466c-0.323,4.733-0.807,11.841-4.757,16.726c2.22,4.938,1.788,8.474,1.499,10.83
		c-0.212,1.724-0.283,2.576,0.383,3.12c6.057,4.957,6.893,7.772,7.445,9.637c0.271,0.916,0.451,1.521,1.159,2.104
		c18.168,14.994,28.315,28.231,30.16,39.347c0.702,2.473,2.578,4.26,4.235,5.835c2.185,2.081,4.248,4.474,1.985,7.104
		c-0.897,1.035-1.248,1.664-1.58,1.664h-0.305l-0.241-0.723c-0.039-0.061-0.069-0.336-0.09-0.404
		c-0.973,1.258-1.409,1.293-1.76,1.293c-0.548,0-0.767-0.454-0.858-0.906c-0.148,0.245-0.277,0.409-0.404,0.548
		c0.463,0.705,0.506,1.578,0.107,2.479c-0.577,1.3-1.914,2.237-3.181,2.237c-0.327-0.005-0.604-0.013-0.881-0.013
		c-4.198,0-7.52,0.518-9.945,0.896c-1.315,0.203-2.264,0.35-2.941,0.35c-0.312,0-0.56-0.032-0.761-0.101
		c-0.608,0.203-1.41,0.319-2.252,0.319c-0.555,0-2.421-0.064-3.167-0.896c-0.088-0.099-0.157-0.203-0.209-0.313
		c-0.569-0.027-1.22-0.042-1.972-0.042c-2.586,0-5.857,0.158-9.017,0.31c-3.036,0.145-5.901,0.28-8.083,0.28
		c-2.657,0-3.638-0.199-4.018-0.593c-0.681-0.222-1.273-0.888-1.612-1.731c-0.422,2.382-0.756,3.647-1.605,3.834
		c-0.175,0.038-0.37,0.059-0.597,0.059c-0.488,0-1.029-0.087-1.603-0.179c-0.542-0.087-1.101-0.175-1.56-0.175
		c-0.468,0-0.678,0.094-0.772,0.173c-0.86,0.734-1.954,0.843-2.53,0.843c-0.369,0-0.737-0.044-1.06-0.125
		C115.355,150.612,114.967,150.685,114.56,150.685z M130.705,125.977c-0.706,2.11-1.268,4.938-1.769,7.452
		c-0.811,4.074-1.309,6.416-2.146,7.169c-0.22,0.197-0.417,0.716-0.593,1.375c0.636-0.563,1.643-0.999,3.235-0.999
		c0.135,0,0.274,0.003,0.419,0.011l1.521,0.073c1.912,0.097,4.077,0.207,5.992,0.207c4.273,0,5.318-0.574,5.561-0.915
		c0.054-0.076,0.093-0.177,0.019-0.391C141.794,136.665,137.396,127.902,130.705,125.977z"/>
	<linearGradient id="SVGID_6_" gradientUnits="userSpaceOnUse" x1="99.0005" y1="95.5542" x2="178.9849" y2="95.5542">
		<stop  offset="0" style="stop-color:#F4DB8C"/>
		<stop  offset="0.0667" style="stop-color:#F0CC7E"/>
		<stop  offset="0.1879" style="stop-color:#EECA7C"/>
		<stop  offset="0.4124" style="stop-color:#D1AD5D"/>
		<stop  offset="0.6286" style="stop-color:#BB9846"/>
		<stop  offset="0.7636" style="stop-color:#B3903D"/>
		<stop  offset="0.8775" style="stop-color:#B5923F"/>
		<stop  offset="0.9185" style="stop-color:#BA9746"/>
		<stop  offset="0.9478" style="stop-color:#C4A151"/>
		<stop  offset="0.9714" style="stop-color:#D3AF62"/>
		<stop  offset="0.9914" style="stop-color:#E5C078"/>
		<stop  offset="1" style="stop-color:#EFCA84"/>
	</linearGradient>
	<path clip-path="url(#SVGID_5_)" fill-rule="evenodd" clip-rule="evenodd" fill="url(#SVGID_6_)" d="M171.815,128.59v0.012
		c-1.15-7.04-6.467-19.664-29.975-39.064c-2.452-2.021,0.409-4.367-8.601-11.741c-2.263-1.848,1.772-6.006-2.184-14.471
		c5.225-6.143,4.504-16.241,5.187-20.201c0.799-4.647-6.395,3.447-9.829,7.507c-1.499,1.776-4.917,0-7.371,0.82
		c-1.833,0.614-2.458-9.145-5.189-10.374c-2.729-1.229-3.271,9.826-2.456,13.103c-1.364,0.547-0.41,0.684-0.952,1.911
		c-0.549,1.228-8.025-0.497-8.056,1.639c-0.136,9.284,1.632,5.871,2.729,8.19c1.094,2.32,3.548,3.004,5.596,4.234
		c-0.681,3.275,0,17.337-1.229,20.201c-1.228,2.866-4.914,5.196,3.004,19.387c3.704,6.639-2.183,21.021-1.775,25.388
		c0.41,4.37-3.276,9.009-7.097,8.466c-2.787-0.4-3.822,2.317-4.505,3.549c-0.681,1.228,1.911,2.046,3.278,1.501
		c1.228,0.545,2.729,0.41,4.234-0.273c1.36,0.545,3.229,0.742,4.501-1.908c4.641-9.694,6.277-4.782,6.277-7.783
		c0-1.128,3.005-10.511,4.236-14.472c0.271,2.321-0.915,5.197-1.231,7.512c-0.545,3.957,1.641,4.641-2.184,11.057
		c-2.349,3.936-2.593-1.914-5.188,5.734c-0.544,1.596,1.637,1.909,2.595,1.361c0.818,0.273,2.318,0.273,3.276-0.547
		c0.956-0.814,3.548,0.273,4.776,0c1.233-0.271,1.367-7.915,2.731-9.146c1.364-1.228,2.182-10.1,3.932-14.878
		c7.615,1.778,12.176,11.742,13.129,14.47c0.958,2.732-7.78,2.048-13.65,1.773c-5.87-0.271-4.367,5.463-2.455,5.735
		c0.408,1.365,16.655-0.411,23.204,0c-0.137,1.231,3.547,1.502,5.191,0.818c0.952,0.684,6.276-1.229,14.467-1.091
		c1.929,0.03,3.823-2.595,2.458-4.097c-0.412-0.451-0.474-1.162-0.414-1.972c0.551,0.65-0.068,2.95,1.229,0.605
		c1.894-3.41-1.228,5.872,4.236-2.864c1.839-2.947-3.003,5.87,0.411,1.911C181.562,136.634,173.505,134.587,171.815,128.59z"/>
	<g clip-path="url(#SVGID_5_)">
		<linearGradient id="SVGID_7_" gradientUnits="userSpaceOnUse" x1="118.9849" y1="121.8931" x2="169.4629" y2="121.8931">
			<stop  offset="0" style="stop-color:#F4DB8C"/>
			<stop  offset="0.0667" style="stop-color:#F0CC7E"/>
			<stop  offset="0.1879" style="stop-color:#EECA7C"/>
			<stop  offset="0.4124" style="stop-color:#D1AD5D"/>
			<stop  offset="0.6286" style="stop-color:#BB9846"/>
			<stop  offset="0.7636" style="stop-color:#B3903D"/>
			<stop  offset="0.8775" style="stop-color:#B5923F"/>
			<stop  offset="0.9185" style="stop-color:#BA9746"/>
			<stop  offset="0.9478" style="stop-color:#C4A151"/>
			<stop  offset="0.9714" style="stop-color:#D3AF62"/>
			<stop  offset="0.9914" style="stop-color:#E5C078"/>
			<stop  offset="1" style="stop-color:#EFCA84"/>
		</linearGradient>
		<path fill="url(#SVGID_7_)" d="M119.039,107.149h-0.004c0-0.563-0.026-0.991,0.202-1.295c0.509-1.31,2.021-1.245,2.614-1.839
			c0.347-3.673,5.998-3.88,8.274-3.841c0.277-0.936,0.303-2.987,0.962-4.158c0.073-0.281,0.176-0.462,0.336-0.462
			c0.721,0.718,2.997,6.178,4.803,6.799c2.317,0.802,4.211,7.705,5.303,8.794c1.092,1.095,8.359-4.678,15.904,4.867
			c5.175,6.545,4.866,12.415,4.866,17.651c9.419,0,10.416,15.218-2.245,8.42c-1.061,2.369-3.616,4.929-10.978,3.743
			c-0.799-0.13-10.666,4.303-12.288,1.436c-2.182,0.747-6.611,1.683-4.366-2.559c-1.995-1.435,1.313-4.553,1.313-4.553
			s0.161-1.227-0.253-2.562c-1.061-3.453-11.229-7.569-11.729-13.743c-0.224-2.794,0.675-8.752,0.905-9.823
			C122.888,112.963,118.448,112.742,119.039,107.149z"/>
		<path fill="#FFFFFF" d="M139.213,148.513c-1.229,0-2.082-0.309-2.541-0.913c-0.757,0.246-2.001,0.589-3.086,0.589
			c-0.928,0-1.554-0.259-1.86-0.769c-0.359-0.596-0.248-1.461,0.341-2.641c-0.343-0.311-0.531-0.698-0.563-1.154
			c-0.098-1.478,1.571-3.219,1.96-3.604c0.025-0.303,0.072-1.297-0.252-2.347c-0.401-1.307-2.336-2.829-4.387-4.443
			c-3.301-2.599-7.045-5.548-7.354-9.359c-0.225-2.805,0.665-8.765,0.911-9.906c0.031-0.14-0.354-0.394-0.725-0.638
			c-1.238-0.813-3.305-2.17-2.903-6.156v-0.181c-0.004-0.497-0.005-0.928,0.235-1.273c0.375-0.922,1.186-1.231,1.839-1.48
			c0.294-0.112,0.575-0.219,0.755-0.361c0.429-3.467,5.264-3.988,8.13-3.988l0.195,0.001c0.065-0.291,0.12-0.67,0.176-1.064
			c0.142-0.991,0.3-2.109,0.741-2.913c0.117-0.425,0.318-0.639,0.599-0.639h0.117l0.082,0.083c0.26,0.259,0.637,0.95,1.157,1.908
			c0.962,1.769,2.416,4.438,3.538,4.824c1.603,0.552,2.933,3.613,4,6.075c0.544,1.251,1.056,2.432,1.411,2.785
			c0.138,0.137,0.859-0.005,1.698-0.215c1.032-0.257,2.447-0.61,4.077-0.61c3.789,0,7.109,1.869,10.15,5.716
			c4.962,6.274,4.945,11.967,4.929,16.987l-0.001,0.563c4.433,0.14,7.163,3.586,7.163,6.782c0,2.396-1.605,3.945-4.089,3.945
			c-1.54,0-3.378-0.554-5.472-1.644c-1.658,3.337-5.403,4.559-11.152,3.633c-0.204,0-1.05,0.282-1.946,0.58
			C144.891,147.414,141.575,148.513,139.213,148.513z M136.918,146.922l0.115,0.202c0.31,0.548,1.043,0.826,2.18,0.826
			c2.271,0,5.534-1.082,7.693-1.8c1.235-0.408,1.842-0.606,2.127-0.606l0.086,0.006c1.218,0.197,2.356,0.296,3.381,0.296
			c3.74,0,6.127-1.269,7.295-3.874l0.125-0.276l0.266,0.143c2.12,1.138,3.959,1.716,5.468,1.716c2.601,0,3.527-1.747,3.527-3.383
			c0-2.51-2.188-6.224-6.882-6.224h-0.281l0.003-1.123c0.015-4.929,0.032-10.516-4.809-16.637c-2.928-3.704-6.104-5.505-9.709-5.505
			c-1.561,0-2.937,0.346-3.941,0.598c-1.145,0.286-1.874,0.423-2.231,0.065c-0.43-0.43-0.915-1.546-1.528-2.958
			c-0.972-2.233-2.301-5.295-3.669-5.769c-1.329-0.457-2.784-3.134-3.847-5.085c-0.342-0.63-0.669-1.23-0.894-1.563
			c-0.011,0.03-0.021,0.068-0.033,0.114l-0.028,0.069c-0.403,0.713-0.563,1.841-0.692,2.748c-0.077,0.538-0.144,1-0.247,1.35
			l-0.06,0.204l-0.621-0.006c-2.705,0-7.286,0.465-7.581,3.589l-0.01,0.103l-0.071,0.071c-0.259,0.259-0.629,0.4-1.022,0.55
			c-0.615,0.234-1.251,0.478-1.529,1.191l-0.038,0.066c-0.142,0.191-0.148,0.494-0.147,0.908l0.025,0.006l-0.02,0.243
			c-0.391,3.687,1.438,4.887,2.647,5.679c0.602,0.396,1.079,0.709,0.965,1.228c-0.241,1.125-1.119,6.992-0.899,9.741
			c0.29,3.567,3.931,6.434,7.143,8.965c2.211,1.739,4.122,3.245,4.575,4.718c0.427,1.375,0.269,2.626,0.263,2.681L134,140.289
			l-0.073,0.068c-0.02,0.018-1.952,1.86-1.861,3.231c0.024,0.364,0.195,0.654,0.52,0.888l0.201,0.143l-0.116,0.218
			c-0.564,1.067-0.725,1.86-0.462,2.294c0.198,0.329,0.662,0.496,1.378,0.496c1.151,0,2.56-0.439,3.11-0.629L136.918,146.922z"/>
	</g>
	<path clip-path="url(#SVGID_5_)" fill-rule="evenodd" clip-rule="evenodd" fill="none" d="M83.253,166.507
		C37.346,166.507,0,129.16,0,83.252C0,37.348,37.346,0,83.253,0c45.905,0,83.252,37.348,83.252,83.252
		C166.505,129.16,129.158,166.507,83.253,166.507z M89.122,44.054v-10h10v-12h-10v-9h-11v9h-11v12h11v10H89.122z"/>
</g>
<path fill="#FFFFFF" d="M15.199,98.595l0.206-1.271h1.139c1.033,0,1.681-0.184,1.942-0.55c0.262-0.368,0.616-1.879,1.064-4.532
	l1.969-11.868c0.485-2.965,0.728-4.84,0.728-5.624c0-0.4-0.119-0.686-0.355-0.86c-0.236-0.174-0.672-0.262-1.307-0.262h-1.812
	l0.205-1.27l7.189,0.131c0.685,0,2.279-0.043,4.781-0.131l-0.205,1.27h-1.383c-0.871,0-1.419,0.177-1.643,0.532
	c-0.224,0.355-0.648,2.251-1.271,5.688l-0.667,3.902l1.403-0.02l6.076,0.057l3.589-0.037l0.601-3.585
	c0.423-2.502,0.635-4.301,0.635-5.397c0-0.459-0.19-0.765-0.57-0.914c-0.379-0.15-1.31-0.225-2.791-0.225l0.205-1.27
	c3.921,0.112,6.305,0.169,7.152,0.169c1.605,0,3.199-0.057,4.78-0.169l-0.205,1.27H46.15c-1.208,0-1.948,0.093-2.222,0.28
	c-0.2,0.137-0.393,0.53-0.579,1.177c-0.299,1.034-0.679,2.953-1.139,5.756l-1.513,9.009c-0.573,3.45-0.86,5.538-0.86,6.262
	c0,0.473,0.16,0.767,0.477,0.877c0.317,0.113,1.173,0.225,2.568,0.336h0.522l-0.224,1.271c-2.116-0.125-4.22-0.188-6.311-0.188
	c-2.055,0-3.99,0.063-5.807,0.188l0.205-1.271h0.597c1.394,0,2.216-0.174,2.465-0.522c0.312-0.45,0.766-2.47,1.364-6.059
	l0.849-5.164l-0.819-0.018h-4.75l-4.768,0.037l-0.689-0.02l-0.535,3.16c-0.697,4.254-1.045,6.717-1.045,7.389
	c0,0.424,0.137,0.711,0.411,0.859c0.411,0.226,1.232,0.337,2.464,0.337h0.485l-0.205,1.271c-2.701-0.125-4.45-0.188-5.246-0.188
	L15.199,98.595z"/>
<path fill="#FFFFFF" d="M43.91,98.595l0.055-1.271h0.729c0.499,0,0.915-0.062,1.251-0.186s0.609-0.33,0.822-0.617l1.494-2.541
	l9.879-16.894c1.393-2.38,2.322-4.018,2.782-4.916h3.68c0.161,1.234,0.341,2.516,0.541,3.851l2.577,16.445
	c0.274,1.781,0.477,2.93,0.606,3.448c0.131,0.516,0.284,0.849,0.458,0.999c0.174,0.149,0.523,0.249,1.046,0.299l0.84,0.094
	c0.287,0.012,0.585,0.018,0.896,0.018l0.019,1.271c-1.519-0.125-3.274-0.188-5.266-0.188c-2.553,0-4.65,0.063-6.294,0.188
	l0.019-1.271h0.728c0.859,0,1.476-0.072,1.849-0.223c0.374-0.15,0.56-0.456,0.56-0.918c0-0.773-0.1-1.835-0.298-3.181l-0.637-4.716
	l-2.971-0.019l-5.548,0.019l-1.558,2.807c-1.631,2.957-2.447,4.729-2.447,5.314c0,0.288,0.149,0.493,0.448,0.618
	c0.474,0.199,1.458,0.298,2.952,0.298l-0.224,1.271c-1.531-0.125-3.038-0.188-4.521-0.188C46.88,98.408,45.391,98.47,43.91,98.595z
	 M60.436,76.525l-5.797,9.912l3.685,0.037l3.648-0.037L60.436,76.525z"/>
<path fill="#FFFFFF" d="M94.929,93.851l-0.449,1.476c-2.056,1.208-3.535,2.005-4.439,2.391c-0.903,0.386-1.869,0.682-2.896,0.887
	c-1.028,0.206-2.103,0.308-3.225,0.308c-3.389,0-5.993-0.88-7.812-2.643c-1.819-1.762-2.73-4.272-2.73-7.534s0.68-6.091,2.038-8.487
	c1.358-2.396,3.39-4.372,6.094-5.93c2.703-1.556,5.525-2.333,8.465-2.333c1.433,0,2.791,0.165,4.074,0.494
	c1.283,0.33,2.33,0.744,3.14,1.242c-0.76,2.466-1.22,4.552-1.382,6.256H94.48c0.063-0.485,0.094-0.938,0.094-1.363
	c0-0.497-0.05-1.281-0.15-2.354c-0.834-0.646-1.733-1.119-2.698-1.419c-0.964-0.297-2.113-0.447-3.445-0.447
	c-2.129,0-3.825,0.433-5.089,1.297c-1.264,0.867-2.281,2.301-3.053,4.305c-0.983,2.516-1.475,5.292-1.475,8.329
	c0,2.752,0.641,4.803,1.923,6.152c1.282,1.353,3.124,2.025,5.527,2.025c1.32,0,2.611-0.21,3.875-0.633
	c1.263-0.424,2.774-1.207,4.528-2.354L94.929,93.851z"/>
<path fill="#FFFFFF" d="M21.234,106v1.406v0.539c0,0.279,0.022,0.459,0.066,0.543c0.044,0.076,0.127,0.127,0.25,0.152
	c0.055,0.01,0.184,0.025,0.387,0.047c0.047,0.006,0.07,0.037,0.07,0.094c0,0.064-0.026,0.098-0.078,0.098
	c-0.083-0.002-0.213-0.006-0.391-0.008c-0.359-0.01-0.621-0.016-0.785-0.016c-0.388,0-0.764,0.008-1.129,0.023
	c-0.037,0-0.055-0.029-0.055-0.09c0-0.063,0.018-0.096,0.055-0.102c0.213-0.021,0.344-0.039,0.391-0.055
	c0.081-0.025,0.139-0.074,0.176-0.145c0.055-0.088,0.087-0.236,0.098-0.441c0.005-0.094,0.008-0.307,0.008-0.641v-2.902
	c0-0.408-0.006-0.666-0.02-0.773c-0.01-0.102-0.039-0.193-0.086-0.277c-0.034-0.07-0.105-0.119-0.215-0.145
	c-0.055-0.014-0.181-0.029-0.379-0.047c-0.042-0.006-0.063-0.039-0.063-0.102c0-0.076,0.021-0.113,0.063-0.113
	c0.057,0,0.266,0.006,0.625,0.02c0.224,0.008,0.401,0.012,0.531,0.012c0.146,0,0.348-0.006,0.605-0.016
	c0.271-0.008,0.441-0.014,0.512-0.016c0.065,0,0.098,0.037,0.098,0.113c0,0.061-0.026,0.094-0.078,0.102
	c-0.211,0.023-0.34,0.041-0.387,0.055c-0.086,0.025-0.15,0.072-0.191,0.137c-0.052,0.111-0.078,0.463-0.078,1.051v1.137
	c0.341,0.016,0.818,0.023,1.43,0.023c0.591,0,1.055-0.008,1.391-0.023v-1.137c0-0.422-0.004-0.682-0.012-0.777
	c-0.008-0.104-0.03-0.195-0.066-0.273c-0.039-0.072-0.117-0.123-0.234-0.148c-0.042-0.008-0.169-0.021-0.383-0.043
	c-0.042-0.006-0.063-0.039-0.063-0.102c0-0.076,0.023-0.113,0.07-0.113c0.057,0,0.268,0.006,0.633,0.02
	c0.227,0.008,0.409,0.012,0.547,0.012c0.135,0,0.331-0.006,0.586-0.016c0.263-0.008,0.435-0.014,0.516-0.016
	c0.065,0,0.098,0.035,0.098,0.105c0,0.068-0.03,0.104-0.09,0.109c-0.219,0.023-0.356,0.045-0.412,0.064s-0.102,0.063-0.139,0.127
	c-0.076,0.125-0.113,0.475-0.113,1.051v2.902c0,0.424,0.006,0.693,0.02,0.805c0.01,0.104,0.039,0.197,0.086,0.277
	c0.044,0.076,0.124,0.127,0.238,0.152c0.055,0.014,0.184,0.029,0.387,0.047c0.037,0.006,0.055,0.039,0.055,0.102
	c0,0.061-0.023,0.09-0.07,0.09c-0.094-0.002-0.227-0.006-0.398-0.008c-0.359-0.01-0.615-0.016-0.766-0.016
	c-0.018,0-0.397,0.008-1.137,0.023c-0.047,0-0.07-0.029-0.07-0.09c0-0.063,0.023-0.096,0.07-0.102
	c0.206-0.021,0.333-0.039,0.383-0.055c0.076-0.025,0.131-0.074,0.168-0.145c0.065-0.125,0.098-0.486,0.098-1.082V106
	c-0.336-0.021-0.799-0.031-1.391-0.031C22.052,105.968,21.575,105.978,21.234,106z"/>
<path fill="#FFFFFF" d="M27.359,106.757c-0.023,0.1-0.035,0.195-0.035,0.289c0,0.521,0.145,0.936,0.434,1.242
	c0.216,0.229,0.453,0.344,0.711,0.344c0.271,0,0.496-0.053,0.676-0.156c0.148-0.088,0.294-0.229,0.438-0.422
	c0.018-0.025,0.044-0.039,0.078-0.039c0.016,0,0.041,0.01,0.074,0.031c0.042,0.033,0.063,0.061,0.063,0.082
	c0,0.014-0.013,0.041-0.039,0.086c-0.195,0.299-0.422,0.51-0.68,0.633c-0.221,0.107-0.488,0.16-0.801,0.16
	c-0.586,0-1.053-0.205-1.402-0.617c-0.297-0.352-0.445-0.787-0.445-1.305c0-0.588,0.195-1.076,0.586-1.465
	c0.349-0.342,0.772-0.512,1.27-0.512c0.505,0,0.91,0.197,1.215,0.594c0.216,0.283,0.331,0.582,0.344,0.895
	c0,0.053-0.013,0.098-0.039,0.137c-0.023,0.025-0.064,0.039-0.121,0.039c-0.534-0.016-1.047-0.023-1.539-0.023
	C27.865,106.75,27.604,106.751,27.359,106.757z M27.398,106.468c0.266,0.006,0.462,0.008,0.59,0.008
	c0.287,0,0.588-0.012,0.906-0.035c0.047-0.006,0.07-0.047,0.07-0.125c-0.016-0.281-0.082-0.512-0.199-0.691
	c-0.12-0.186-0.28-0.277-0.48-0.277c-0.227,0-0.423,0.119-0.59,0.355C27.554,105.904,27.455,106.158,27.398,106.468z"/>
<path fill="#FFFFFF" d="M33.167,109c-0.065,0-0.098-0.033-0.098-0.098c0.016-0.234,0.023-0.443,0.023-0.625
	c-0.273,0.486-0.673,0.73-1.199,0.73c-0.294,0-0.548-0.072-0.762-0.219c-0.292-0.195-0.438-0.502-0.438-0.918l0.016-0.855v-0.633
	c0-0.314-0.01-0.521-0.031-0.617c-0.034-0.146-0.117-0.215-0.25-0.207l-0.207,0.008c-0.044,0-0.072-0.004-0.082-0.012
	c-0.01-0.01-0.017-0.037-0.02-0.078c-0.002-0.021-0.004-0.035-0.004-0.043c0-0.045,0.027-0.068,0.082-0.074
	c0.487-0.064,0.917-0.141,1.289-0.227c0.063,0,0.094,0.027,0.094,0.082c-0.021,0.508-0.031,0.975-0.031,1.398v0.84
	c0,0.391,0.03,0.646,0.09,0.77c0.102,0.258,0.295,0.387,0.582,0.387s0.521-0.154,0.703-0.465c0.112-0.186,0.168-0.396,0.168-0.633
	v-1.129c0-0.252-0.016-0.455-0.047-0.609c-0.034-0.15-0.117-0.223-0.25-0.215l-0.215,0.016h-0.027c-0.039,0-0.061-0.033-0.066-0.098
	c-0.002-0.025-0.004-0.041-0.004-0.043c0-0.039,0.03-0.063,0.09-0.07c0.331-0.039,0.75-0.115,1.258-0.23
	c0.057,0,0.086,0.025,0.086,0.074c-0.016,0.389-0.023,0.857-0.023,1.406v1.105c0,0.432,0.016,0.697,0.047,0.793
	c0.037,0.096,0.135,0.15,0.297,0.16l0.152,0.008c0.052,0.006,0.078,0.037,0.078,0.094c0,0.061-0.023,0.09-0.07,0.09
	C34.021,108.884,33.61,108.929,33.167,109z"/>
<path fill="#FFFFFF" d="M36.191,105.98c0.326-0.586,0.669-0.879,1.031-0.879c0.143,0,0.256,0.025,0.34,0.078
	c0.068,0.045,0.102,0.102,0.102,0.172c0,0.164-0.053,0.311-0.16,0.438c-0.088,0.107-0.18,0.16-0.273,0.16
	c-0.063,0-0.142-0.033-0.238-0.098c-0.086-0.053-0.155-0.078-0.207-0.078c-0.117,0-0.241,0.08-0.371,0.238
	c-0.148,0.182-0.223,0.418-0.223,0.707v0.977c0,0.49,0.018,0.771,0.055,0.848c0.031,0.061,0.088,0.1,0.172,0.117
	c0.037,0.008,0.138,0.02,0.305,0.035c0.037,0,0.055,0.033,0.055,0.102c0,0.055-0.018,0.082-0.055,0.082
	c-0.073-0.002-0.177-0.006-0.313-0.008c-0.281-0.01-0.479-0.016-0.594-0.016c-0.002,0-0.315,0.008-0.938,0.023
	c-0.042,0-0.063-0.027-0.063-0.082c0-0.061,0.021-0.094,0.063-0.102c0.162-0.016,0.26-0.029,0.297-0.043
	c0.063-0.018,0.105-0.055,0.129-0.109c0.052-0.102,0.078-0.385,0.078-0.848v-1.184c0-0.303-0.021-0.521-0.063-0.656
	c-0.034-0.117-0.115-0.176-0.242-0.176c-0.013,0-0.023,0-0.031,0l-0.199,0.016c-0.021,0-0.035,0-0.043,0
	c-0.042,0-0.065-0.029-0.07-0.09c0-0.014,0-0.025,0-0.035c0-0.045,0.033-0.072,0.098-0.086c0.438-0.088,0.865-0.209,1.281-0.359
	c0.068,0,0.102,0.025,0.102,0.074C36.199,105.636,36.191,105.896,36.191,105.98z"/>
<path fill="#FFFFFF" d="M38.5,106.542c0-0.326-0.013-0.551-0.039-0.676c-0.034-0.109-0.112-0.164-0.234-0.164
	c-0.026,0-0.047,0-0.063,0l-0.207,0.016c-0.021,0-0.037,0-0.047,0c-0.031,0-0.049-0.029-0.055-0.09
	c-0.002-0.023-0.004-0.039-0.004-0.047c0-0.039,0.03-0.064,0.09-0.074c0.443-0.102,0.875-0.225,1.297-0.367
	c0.063,0,0.094,0.027,0.094,0.082c-0.021,0.521-0.031,0.994-0.031,1.418v1.047c0,0.484,0.018,0.77,0.055,0.855
	c0.031,0.057,0.088,0.094,0.172,0.109c0.039,0.008,0.134,0.018,0.285,0.027c0.037,0.006,0.055,0.039,0.055,0.102
	c0,0.064-0.018,0.098-0.055,0.098c-0.065-0.002-0.164-0.006-0.297-0.008c-0.273-0.01-0.47-0.016-0.59-0.016
	c-0.034,0-0.336,0.008-0.906,0.023c-0.052,0-0.078-0.033-0.078-0.098c0-0.068,0.023-0.102,0.07-0.102
	c0.146-0.01,0.242-0.021,0.289-0.035c0.063-0.021,0.107-0.055,0.133-0.102c0.044-0.072,0.066-0.242,0.066-0.508v-0.348V106.542z
	 M38.847,102.914c0.143,0,0.271,0.061,0.383,0.184c0.099,0.107,0.148,0.225,0.148,0.355c0,0.146-0.063,0.275-0.188,0.391
	c-0.107,0.1-0.221,0.148-0.344,0.148c-0.148,0-0.281-0.063-0.398-0.188c-0.099-0.107-0.148-0.225-0.148-0.352
	c0-0.15,0.064-0.283,0.191-0.395C38.599,102.962,38.717,102.914,38.847,102.914z"/>
<path fill="#FFFFFF" d="M42.792,105.191c0.023,0.422,0.047,0.732,0.07,0.93c0,0.041-0.03,0.066-0.09,0.074
	c-0.013,0.002-0.025,0.004-0.035,0.004c-0.031,0-0.059-0.02-0.082-0.059c-0.266-0.545-0.578-0.816-0.938-0.816
	c-0.417,0-0.625,0.189-0.625,0.57c0,0.211,0.201,0.4,0.602,0.566l0.281,0.121c0.419,0.186,0.701,0.357,0.844,0.516
	c0.167,0.186,0.25,0.432,0.25,0.742c0,0.336-0.126,0.613-0.379,0.832C42.436,108.89,42.093,109,41.664,109
	c-0.398,0-0.777-0.076-1.137-0.227c-0.078-0.268-0.137-0.557-0.176-0.867c0-0.041,0.026-0.064,0.078-0.07
	c0.026-0.002,0.044-0.004,0.055-0.004c0.023,0,0.043,0.018,0.059,0.051c0.143,0.283,0.324,0.506,0.543,0.668
	c0.193,0.146,0.385,0.219,0.578,0.219c0.242,0,0.424-0.076,0.547-0.227c0.099-0.123,0.148-0.285,0.148-0.488
	c0-0.166-0.073-0.307-0.219-0.422c-0.088-0.07-0.26-0.166-0.516-0.289l-0.273-0.129c-0.362-0.17-0.6-0.32-0.715-0.453
	c-0.143-0.17-0.215-0.402-0.215-0.699c0-0.273,0.113-0.502,0.34-0.684c0.232-0.186,0.541-0.277,0.926-0.277
	c0.143,0,0.334,0.025,0.574,0.078c0.086,0.018,0.174,0.027,0.266,0.027C42.605,105.207,42.693,105.201,42.792,105.191z"/>
<path fill="#FFFFFF" d="M49.593,106.679c-0.359-0.021-0.664-0.031-0.914-0.031c-0.206,0-0.537,0.01-0.992,0.031l-0.305,0.84
	c-0.088,0.248-0.133,0.453-0.133,0.617c0,0.1,0.017,0.191,0.051,0.277c0.055,0.131,0.262,0.217,0.621,0.258
	c0.047,0,0.07,0.033,0.07,0.102c0,0.07-0.03,0.105-0.09,0.105c-0.195-0.01-0.527-0.016-0.996-0.016c-0.385,0-0.666,0.006-0.84,0.016
	c-0.06,0-0.09-0.035-0.09-0.105c0-0.068,0.03-0.102,0.09-0.102c0.162-0.025,0.318-0.109,0.469-0.25
	c0.154-0.15,0.316-0.463,0.488-0.934l0.961-2.594c0.24-0.646,0.432-1.205,0.578-1.68l0.629-0.289c0.057,0,0.092,0.025,0.105,0.074
	c0.039,0.119,0.26,0.768,0.664,1.941l0.902,2.609c0.162,0.477,0.295,0.779,0.402,0.91c0.068,0.086,0.138,0.141,0.211,0.164
	c0.055,0.018,0.156,0.033,0.305,0.047c0.07,0,0.105,0.033,0.105,0.102c0,0.07-0.035,0.105-0.105,0.105
	c-0.474-0.01-0.852-0.016-1.133-0.016c-0.276,0-0.652,0.006-1.129,0.016c-0.042,0-0.063-0.035-0.063-0.105
	c0-0.068,0.021-0.102,0.063-0.102c0.333-0.018,0.518-0.088,0.555-0.211c0.016-0.047,0.023-0.098,0.023-0.152
	c0-0.135-0.056-0.365-0.168-0.688L49.593,106.679z M48.664,103.91l-0.359,1.031l-0.512,1.418c0.174,0.01,0.47,0.016,0.887,0.016
	c0.38,0,0.647-0.006,0.801-0.016L49,104.957C48.914,104.712,48.802,104.363,48.664,103.91z"/>
<path fill="#FFFFFF" d="M53.406,105.871c0.294-0.508,0.707-0.762,1.238-0.762c0.266,0,0.508,0.076,0.727,0.227
	c0.294,0.201,0.441,0.506,0.441,0.918l-0.008,0.891v0.551c0,0.475,0.021,0.756,0.063,0.848c0.029,0.057,0.081,0.096,0.156,0.117
	c0.039,0.01,0.126,0.021,0.262,0.035c0.042,0.008,0.063,0.039,0.063,0.094c0,0.061-0.021,0.09-0.063,0.09
	c-0.002,0-0.162-0.006-0.477-0.016c-0.162-0.006-0.293-0.008-0.395-0.008c-0.115,0-0.275,0.002-0.48,0.008
	c-0.242,0.01-0.387,0.016-0.434,0.016c-0.042,0-0.063-0.029-0.063-0.09c0-0.063,0.021-0.094,0.063-0.094
	c0.138-0.01,0.229-0.023,0.273-0.039c0.063-0.021,0.108-0.059,0.137-0.113c0.042-0.086,0.063-0.369,0.063-0.848v-1.09
	c0-0.318-0.033-0.547-0.098-0.688c-0.115-0.268-0.309-0.402-0.582-0.402c-0.148,0-0.293,0.049-0.434,0.148
	c-0.117,0.084-0.212,0.186-0.285,0.309c-0.112,0.188-0.168,0.4-0.168,0.641v1.082c0,0.498,0.016,0.779,0.047,0.848
	c0.031,0.061,0.087,0.1,0.168,0.117c0.031,0.008,0.123,0.02,0.273,0.035c0.047,0.006,0.07,0.037,0.07,0.094
	c0,0.061-0.023,0.09-0.07,0.09c-0.065-0.002-0.162-0.006-0.289-0.008c-0.263-0.01-0.452-0.016-0.566-0.016
	c-0.12,0-0.281,0.002-0.484,0.008c-0.248,0.01-0.393,0.016-0.438,0.016c-0.037,0-0.055-0.029-0.055-0.09
	c0-0.055,0.018-0.086,0.055-0.094c0.159-0.016,0.255-0.029,0.289-0.043c0.063-0.018,0.108-0.055,0.137-0.109
	c0.037-0.076,0.055-0.357,0.055-0.848v-1.184c0-0.352-0.018-0.576-0.055-0.672c-0.042-0.111-0.115-0.168-0.219-0.168
	c-0.013,0-0.023,0-0.031,0l-0.215,0.016c-0.018,0-0.031,0-0.039,0c-0.044,0-0.069-0.029-0.074-0.09c0-0.014,0-0.025,0-0.035
	c0-0.045,0.033-0.072,0.098-0.086c0.406-0.078,0.828-0.195,1.266-0.352c0.063,0,0.094,0.021,0.094,0.066
	C53.411,105.339,53.406,105.566,53.406,105.871z"/>
<path fill="#FFFFFF" d="M57.273,106.542c0-0.326-0.013-0.551-0.039-0.676c-0.034-0.109-0.112-0.164-0.234-0.164
	c-0.026,0-0.047,0-0.063,0l-0.207,0.016c-0.021,0-0.037,0-0.047,0c-0.031,0-0.049-0.029-0.055-0.09
	c-0.002-0.023-0.004-0.039-0.004-0.047c0-0.039,0.03-0.064,0.09-0.074c0.443-0.102,0.875-0.225,1.297-0.367
	c0.063,0,0.094,0.027,0.094,0.082c-0.021,0.521-0.031,0.994-0.031,1.418v1.047c0,0.484,0.018,0.77,0.055,0.855
	c0.031,0.057,0.088,0.094,0.172,0.109c0.039,0.008,0.134,0.018,0.285,0.027c0.037,0.006,0.055,0.039,0.055,0.102
	c0,0.064-0.018,0.098-0.055,0.098c-0.065-0.002-0.164-0.006-0.297-0.008c-0.273-0.01-0.47-0.016-0.59-0.016
	c-0.034,0-0.336,0.008-0.906,0.023c-0.052,0-0.078-0.033-0.078-0.098c0-0.068,0.023-0.102,0.07-0.102
	c0.146-0.01,0.242-0.021,0.289-0.035c0.063-0.021,0.107-0.055,0.133-0.102c0.044-0.072,0.066-0.242,0.066-0.508v-0.348V106.542z
	 M57.621,102.914c0.143,0,0.271,0.061,0.383,0.184c0.099,0.107,0.148,0.225,0.148,0.355c0,0.146-0.063,0.275-0.188,0.391
	c-0.107,0.1-0.221,0.148-0.344,0.148c-0.148,0-0.281-0.063-0.398-0.188c-0.099-0.107-0.148-0.225-0.148-0.352
	c0-0.15,0.064-0.283,0.191-0.395C57.372,102.962,57.49,102.914,57.621,102.914z"/>
<path fill="#FFFFFF" d="M62.671,105.902c0.305-0.529,0.72-0.793,1.246-0.793c0.263,0,0.5,0.076,0.711,0.227
	c0.284,0.201,0.426,0.506,0.426,0.918l-0.008,0.891v0.551c0,0.484,0.018,0.768,0.055,0.848c0.031,0.055,0.092,0.094,0.184,0.117
	c0.037,0.008,0.125,0.02,0.266,0.035c0.042,0.008,0.063,0.037,0.063,0.086c0,0.064-0.021,0.098-0.063,0.098l-0.879-0.023
	c-0.115,0-0.276,0.002-0.484,0.008c-0.245,0.008-0.393,0.014-0.445,0.016c-0.047,0-0.07-0.033-0.07-0.098
	c0-0.057,0.023-0.086,0.07-0.086c0.154-0.016,0.248-0.029,0.281-0.043c0.063-0.018,0.108-0.055,0.137-0.109
	c0.042-0.086,0.063-0.369,0.063-0.848v-1.09c0-0.307-0.03-0.537-0.09-0.688c-0.096-0.268-0.283-0.402-0.559-0.402
	c-0.279,0-0.508,0.152-0.688,0.457c-0.112,0.182-0.168,0.391-0.168,0.625v1.098c0,0.484,0.018,0.768,0.055,0.848
	c0.026,0.057,0.084,0.096,0.176,0.117c0.042,0.008,0.135,0.02,0.281,0.035c0.037,0.006,0.055,0.037,0.055,0.094
	c0,0.061-0.021,0.09-0.063,0.09c-0.016,0-0.178-0.006-0.488-0.016c-0.164-0.006-0.294-0.008-0.391-0.008
	c-0.12,0-0.281,0.002-0.484,0.008c-0.25,0.01-0.393,0.016-0.43,0.016c-0.047,0-0.07-0.033-0.07-0.098
	c0-0.057,0.023-0.086,0.07-0.086c0.138-0.01,0.229-0.023,0.273-0.039c0.063-0.021,0.108-0.059,0.137-0.113
	c0.042-0.086,0.063-0.369,0.063-0.848v-1.09v-0.16c0-0.211-0.03-0.387-0.09-0.527c-0.102-0.268-0.291-0.402-0.566-0.402
	c-0.268,0-0.492,0.152-0.672,0.457c-0.117,0.195-0.176,0.408-0.176,0.641v1.082c0,0.498,0.016,0.779,0.047,0.848
	c0.026,0.061,0.084,0.1,0.176,0.117c0.026,0.006,0.117,0.018,0.273,0.035c0.042,0.008,0.063,0.041,0.063,0.102
	c0,0.055-0.021,0.082-0.063,0.082c-0.586-0.016-0.881-0.023-0.887-0.023c-0.117,0-0.275,0.002-0.473,0.008
	c-0.24,0.01-0.381,0.016-0.426,0.016c-0.047,0-0.07-0.029-0.07-0.09c0-0.057,0.023-0.088,0.07-0.094
	c0.154-0.016,0.248-0.029,0.281-0.043c0.065-0.018,0.112-0.055,0.141-0.109c0.039-0.068,0.059-0.227,0.059-0.477v-0.371v-1.184
	c0-0.346-0.018-0.568-0.055-0.664c-0.042-0.111-0.117-0.168-0.227-0.168c-0.023,0-0.042,0-0.055,0l-0.191,0.016
	c-0.018,0-0.031,0-0.039,0c-0.039,0-0.061-0.029-0.066-0.09c0-0.014,0-0.025,0-0.039c0-0.041,0.03-0.068,0.09-0.082
	c0.412-0.088,0.838-0.205,1.281-0.352c0.057,0,0.086,0.021,0.086,0.066c-0.01,0.299-0.016,0.523-0.016,0.672
	c0.133-0.256,0.314-0.451,0.543-0.59c0.19-0.115,0.385-0.172,0.586-0.172c0.276,0,0.514,0.066,0.715,0.199
	C62.447,105.447,62.591,105.644,62.671,105.902z"/>
<path fill="#FFFFFF" d="M68.191,108.535c-0.172,0.172-0.337,0.291-0.496,0.359c-0.174,0.076-0.383,0.113-0.625,0.113
	c-0.375,0-0.654-0.107-0.836-0.324c-0.125-0.148-0.188-0.322-0.188-0.523c0-0.275,0.091-0.514,0.273-0.715
	c0.112-0.1,0.262-0.184,0.449-0.254c0.07-0.029,0.262-0.09,0.574-0.184c0.279-0.084,0.487-0.18,0.625-0.289
	c0.123-0.094,0.184-0.197,0.184-0.313v-0.223c0-0.568-0.16-0.852-0.48-0.852c-0.172,0-0.311,0.053-0.418,0.16
	c-0.094,0.084-0.141,0.232-0.141,0.449c0,0.123-0.059,0.219-0.176,0.289c-0.107,0.064-0.254,0.098-0.441,0.098
	c-0.208,0-0.313-0.086-0.313-0.258c0-0.232,0.163-0.451,0.488-0.66c0.315-0.201,0.686-0.301,1.113-0.301
	c0.523,0,0.869,0.119,1.035,0.359c0.099,0.146,0.148,0.383,0.148,0.711c0,0.055,0,0.096,0,0.121l-0.02,1.676
	c-0.005,0.467,0.091,0.699,0.289,0.699c0.086,0,0.164-0.018,0.234-0.055c0.013-0.006,0.025-0.008,0.035-0.008
	c0.026,0,0.048,0.018,0.066,0.051c0.016,0.023,0.023,0.041,0.023,0.055c0,0.021-0.016,0.041-0.047,0.063
	c-0.159,0.123-0.385,0.184-0.68,0.184C68.529,108.964,68.303,108.822,68.191,108.535z M68.152,106.847
	c-0.068,0.1-0.281,0.217-0.641,0.352c-0.391,0.154-0.586,0.434-0.586,0.84c0,0.211,0.064,0.381,0.191,0.508
	c0.096,0.1,0.201,0.148,0.313,0.148c0.219,0,0.398-0.078,0.539-0.234c0.117-0.131,0.176-0.283,0.176-0.461L68.152,106.847z"/>
<path fill="#FFFFFF" d="M70.3,107.679v-3.602c0-0.279-0.018-0.498-0.055-0.656c-0.029-0.123-0.108-0.184-0.238-0.184
	c-0.013,0-0.022,0-0.027,0l-0.215,0.016c-0.016,0-0.027,0-0.035,0c-0.037,0-0.057-0.029-0.063-0.09c0-0.016,0-0.029,0-0.039
	c0-0.041,0.027-0.068,0.082-0.082c0.401-0.076,0.841-0.191,1.32-0.348c0.063,0,0.094,0.018,0.094,0.055
	c-0.026,1.008-0.039,1.664-0.039,1.969v2.961c0,0.5,0.018,0.785,0.055,0.855c0.031,0.061,0.087,0.1,0.168,0.121
	c0.042,0.014,0.135,0.025,0.281,0.039c0.037,0.006,0.055,0.037,0.055,0.094c0,0.061-0.021,0.09-0.063,0.09
	c-0.299-0.016-0.59-0.023-0.871-0.023c-0.31,0-0.613,0.008-0.91,0.023c-0.06,0-0.09-0.029-0.09-0.09
	c0-0.057,0.026-0.088,0.078-0.094c0.148-0.016,0.244-0.031,0.285-0.047c0.055-0.021,0.096-0.059,0.125-0.113
	C70.279,108.443,70.3,108.158,70.3,107.679z"/>
<path fill="#FFFFFF" d="M79.796,103.132c0.031,0.406,0.077,0.869,0.137,1.391c0,0.008,0,0.014,0,0.02
	c0,0.047-0.027,0.078-0.082,0.094c-0.018,0.002-0.034,0.004-0.047,0.004c-0.031,0-0.059-0.023-0.082-0.07
	c-0.237-0.459-0.477-0.793-0.719-1.004c-0.297-0.25-0.638-0.375-1.023-0.375c-0.633,0-1.145,0.283-1.535,0.852
	c-0.346,0.506-0.52,1.139-0.52,1.898c0,0.791,0.225,1.439,0.676,1.941c0.393,0.436,0.866,0.652,1.418,0.652
	c0.846,0,1.502-0.371,1.969-1.113c0.013-0.025,0.033-0.039,0.059-0.039c0.023,0,0.057,0.01,0.102,0.031
	c0.047,0.021,0.07,0.049,0.07,0.086c0,0.016-0.005,0.033-0.016,0.055c-0.534,0.969-1.318,1.453-2.352,1.453
	c-0.945,0-1.706-0.32-2.281-0.961c-0.5-0.557-0.75-1.252-0.75-2.086c0-0.947,0.326-1.711,0.977-2.289
	c0.565-0.502,1.26-0.754,2.086-0.754c0.328,0,0.667,0.043,1.016,0.129c0.284,0.07,0.501,0.105,0.652,0.105
	C79.631,103.152,79.713,103.146,79.796,103.132z"/>
<path fill="#FFFFFF" d="M80.996,107.679v-3.602c0-0.279-0.018-0.498-0.055-0.656c-0.029-0.123-0.108-0.184-0.238-0.184
	c-0.013,0-0.022,0-0.027,0l-0.215,0.016c-0.016,0-0.027,0-0.035,0c-0.037,0-0.057-0.029-0.063-0.09c0-0.016,0-0.029,0-0.039
	c0-0.041,0.027-0.068,0.082-0.082c0.401-0.076,0.841-0.191,1.32-0.348c0.063,0,0.094,0.018,0.094,0.055
	c-0.026,1.008-0.039,1.664-0.039,1.969v2.961c0,0.5,0.018,0.785,0.055,0.855c0.031,0.061,0.087,0.1,0.168,0.121
	c0.042,0.014,0.135,0.025,0.281,0.039c0.037,0.006,0.055,0.037,0.055,0.094c0,0.061-0.021,0.09-0.063,0.09
	c-0.299-0.016-0.59-0.023-0.871-0.023c-0.31,0-0.613,0.008-0.91,0.023c-0.06,0-0.09-0.029-0.09-0.09
	c0-0.057,0.026-0.088,0.078-0.094c0.148-0.016,0.244-0.031,0.285-0.047c0.055-0.021,0.096-0.059,0.125-0.113
	C80.975,108.443,80.996,108.158,80.996,107.679z"/>
<path fill="#FFFFFF" d="M83.265,106.542c0-0.326-0.013-0.551-0.039-0.676c-0.034-0.109-0.112-0.164-0.234-0.164
	c-0.026,0-0.047,0-0.063,0l-0.207,0.016c-0.021,0-0.037,0-0.047,0c-0.031,0-0.049-0.029-0.055-0.09
	c-0.002-0.023-0.004-0.039-0.004-0.047c0-0.039,0.03-0.064,0.09-0.074c0.443-0.102,0.875-0.225,1.297-0.367
	c0.063,0,0.094,0.027,0.094,0.082c-0.021,0.521-0.031,0.994-0.031,1.418v1.047c0,0.484,0.018,0.77,0.055,0.855
	c0.031,0.057,0.088,0.094,0.172,0.109c0.039,0.008,0.134,0.018,0.285,0.027c0.037,0.006,0.055,0.039,0.055,0.102
	c0,0.064-0.018,0.098-0.055,0.098c-0.065-0.002-0.164-0.006-0.297-0.008c-0.273-0.01-0.47-0.016-0.59-0.016
	c-0.034,0-0.336,0.008-0.906,0.023c-0.052,0-0.078-0.033-0.078-0.098c0-0.068,0.023-0.102,0.07-0.102
	c0.146-0.01,0.242-0.021,0.289-0.035c0.063-0.021,0.107-0.055,0.133-0.102c0.044-0.072,0.066-0.242,0.066-0.508v-0.348V106.542z
	 M83.613,102.914c0.143,0,0.271,0.061,0.383,0.184c0.099,0.107,0.148,0.225,0.148,0.355c0,0.146-0.063,0.275-0.188,0.391
	c-0.107,0.1-0.221,0.148-0.344,0.148c-0.148,0-0.281-0.063-0.398-0.188c-0.099-0.107-0.148-0.225-0.148-0.352
	c0-0.15,0.064-0.283,0.191-0.395C83.364,102.962,83.482,102.914,83.613,102.914z"/>
<path fill="#FFFFFF" d="M86.39,105.871c0.294-0.508,0.707-0.762,1.238-0.762c0.266,0,0.508,0.076,0.727,0.227
	c0.294,0.201,0.441,0.506,0.441,0.918l-0.008,0.891v0.551c0,0.475,0.021,0.756,0.063,0.848c0.029,0.057,0.081,0.096,0.156,0.117
	c0.039,0.01,0.126,0.021,0.262,0.035c0.042,0.008,0.063,0.039,0.063,0.094c0,0.061-0.021,0.09-0.063,0.09
	c-0.002,0-0.162-0.006-0.477-0.016c-0.162-0.006-0.293-0.008-0.395-0.008c-0.115,0-0.275,0.002-0.48,0.008
	c-0.242,0.01-0.387,0.016-0.434,0.016c-0.042,0-0.063-0.029-0.063-0.09c0-0.063,0.021-0.094,0.063-0.094
	c0.138-0.01,0.229-0.023,0.273-0.039c0.063-0.021,0.108-0.059,0.137-0.113c0.042-0.086,0.063-0.369,0.063-0.848v-1.09
	c0-0.318-0.033-0.547-0.098-0.688c-0.115-0.268-0.309-0.402-0.582-0.402c-0.148,0-0.293,0.049-0.434,0.148
	c-0.117,0.084-0.212,0.186-0.285,0.309c-0.112,0.188-0.168,0.4-0.168,0.641v1.082c0,0.498,0.016,0.779,0.047,0.848
	c0.031,0.061,0.087,0.1,0.168,0.117c0.031,0.008,0.123,0.02,0.273,0.035c0.047,0.006,0.07,0.037,0.07,0.094
	c0,0.061-0.023,0.09-0.07,0.09c-0.065-0.002-0.162-0.006-0.289-0.008c-0.263-0.01-0.452-0.016-0.566-0.016
	c-0.12,0-0.281,0.002-0.484,0.008c-0.248,0.01-0.393,0.016-0.438,0.016c-0.037,0-0.055-0.029-0.055-0.09
	c0-0.055,0.018-0.086,0.055-0.094c0.159-0.016,0.255-0.029,0.289-0.043c0.063-0.018,0.108-0.055,0.137-0.109
	c0.037-0.076,0.055-0.357,0.055-0.848v-1.184c0-0.352-0.018-0.576-0.055-0.672c-0.042-0.111-0.115-0.168-0.219-0.168
	c-0.013,0-0.023,0-0.031,0l-0.215,0.016c-0.018,0-0.031,0-0.039,0c-0.044,0-0.069-0.029-0.074-0.09c0-0.014,0-0.025,0-0.035
	c0-0.045,0.033-0.072,0.098-0.086c0.406-0.078,0.828-0.195,1.266-0.352c0.063,0,0.094,0.021,0.094,0.066
	C86.396,105.339,86.39,105.566,86.39,105.871z"/>
<path fill="#FFFFFF" d="M90.257,106.542c0-0.326-0.013-0.551-0.039-0.676c-0.034-0.109-0.112-0.164-0.234-0.164
	c-0.026,0-0.047,0-0.063,0l-0.207,0.016c-0.021,0-0.037,0-0.047,0c-0.031,0-0.049-0.029-0.055-0.09
	c-0.002-0.023-0.004-0.039-0.004-0.047c0-0.039,0.03-0.064,0.09-0.074c0.443-0.102,0.875-0.225,1.297-0.367
	c0.063,0,0.094,0.027,0.094,0.082c-0.021,0.521-0.031,0.994-0.031,1.418v1.047c0,0.484,0.018,0.77,0.055,0.855
	c0.031,0.057,0.088,0.094,0.172,0.109c0.039,0.008,0.134,0.018,0.285,0.027c0.037,0.006,0.055,0.039,0.055,0.102
	c0,0.064-0.018,0.098-0.055,0.098c-0.065-0.002-0.164-0.006-0.297-0.008c-0.273-0.01-0.47-0.016-0.59-0.016
	c-0.034,0-0.336,0.008-0.906,0.023c-0.052,0-0.078-0.033-0.078-0.098c0-0.068,0.023-0.102,0.07-0.102
	c0.146-0.01,0.242-0.021,0.289-0.035c0.063-0.021,0.107-0.055,0.133-0.102c0.044-0.072,0.066-0.242,0.066-0.508v-0.348V106.542z
	 M90.605,102.914c0.143,0,0.271,0.061,0.383,0.184c0.099,0.107,0.148,0.225,0.148,0.355c0,0.146-0.063,0.275-0.188,0.391
	c-0.107,0.1-0.221,0.148-0.344,0.148c-0.148,0-0.281-0.063-0.398-0.188c-0.099-0.107-0.148-0.225-0.148-0.352
	c0-0.15,0.064-0.283,0.191-0.395C90.356,102.962,90.475,102.914,90.605,102.914z"/>
<path fill="#FFFFFF" d="M93.933,105.109c0.375,0,0.701,0.061,0.977,0.184c0.213,0.086,0.32,0.213,0.32,0.379
	c0,0.352-0.117,0.527-0.352,0.527c-0.154,0-0.314-0.166-0.48-0.496c-0.123-0.225-0.263-0.336-0.422-0.336
	c-0.32,0-0.563,0.178-0.727,0.531c-0.135,0.295-0.203,0.678-0.203,1.148c0,0.521,0.134,0.93,0.402,1.227
	c0.206,0.229,0.443,0.344,0.711,0.344c0.245,0,0.448-0.051,0.609-0.152c0.133-0.084,0.27-0.221,0.41-0.41
	c0.018-0.031,0.039-0.047,0.063-0.047c0.018,0,0.044,0.014,0.078,0.039c0.042,0.023,0.063,0.049,0.063,0.074
	c0,0.014-0.004,0.029-0.012,0.047c-0.328,0.561-0.811,0.84-1.449,0.84c-0.578,0-1.038-0.203-1.379-0.609
	c-0.294-0.352-0.441-0.789-0.441-1.313c0-0.594,0.199-1.084,0.598-1.473C93.042,105.277,93.454,105.109,93.933,105.109z"/>
</svg>
