<?xml version="1.0" encoding="utf-8"?>
<!-- Generator: Adobe Illustrator 15.1.0, SVG Export Plug-In  -->
<!DOCTYPE svg PUBLIC "-//W3C//DTD SVG 1.1//EN" "http://www.w3.org/Graphics/SVG/1.1/DTD/svg11.dtd" [
	<!ENTITY ns_flows "http://ns.adobe.com/Flows/1.0/">
]>
<svg version="1.1"
	 xmlns="http://www.w3.org/2000/svg" xmlns:xlink="http://www.w3.org/1999/xlink" xmlns:a="http://ns.adobe.com/AdobeSVGViewerExtensions/3.0/"
	 x="0px" y="0px" width="479px" height="140px" viewBox="21 17 479 140" enable-background="new 21 17 479 140"
	 xml:space="preserve">
<defs>
</defs>
<rect display="none" fill="#FFFFFF" width="971" height="282"/>
<text transform="matrix(1 0 0 1 157.4678 60.2598)" display="none"><tspan x="0" y="0" display="inline" font-family="'KozMinPro-Regular-90ms-RKSJ-H'" font-size="37.8795">ヒューリス</tspan><tspan x="-75.759" y="45.455" display="inline" font-family="'KozMinPro-Regular-90ms-RKSJ-H'" font-size="37.8795">アニマルクリニック</tspan></text>
<text transform="matrix(1 0 0 1 137.2891 139.1074)" display="none" font-family="'KozMinPro-Regular-90ms-RKSJ-H'" font-size="25.253">Heuris Animal Clinic</text>
<rect x="20" y="86" display="none" fill="#C69C6D" width="46" height="61"/>
<text transform="matrix(1 0 0 1 37.6304 118.8145)" display="none" font-family="'KozMinPro-Regular-90ms-RKSJ-H'" font-size="10.1561">犬</text>
<rect x="456.5" y="110.5" display="none" fill="#C69C6D" stroke="#000000" stroke-miterlimit="10" width="25" height="36"/>
<text transform="matrix(1 0 0 1 467.0327 131.3379)" display="none" font-family="'KozMinPro-Regular-90ms-RKSJ-H'" font-size="5.5012">猫</text>
<line display="none" fill="none" stroke="#000000" stroke-width="5" stroke-miterlimit="10" x1="12" y1="153.5" x2="491" y2="153.5"/>
<line display="none" fill="none" stroke="#000000" stroke-width="5" stroke-miterlimit="10" x1="14" y1="22.5" x2="493" y2="22.5"/>
<rect display="none" fill="#FFFFFF" width="971" height="282"/>
<text transform="matrix(1 0 0 1 157.4678 60.2598)" display="none"><tspan x="0" y="0" display="inline" font-family="'KozMinPro-Regular-90ms-RKSJ-H'" font-size="37.8795">ヒューリス</tspan><tspan x="-75.759" y="45.455" display="inline" font-family="'KozMinPro-Regular-90ms-RKSJ-H'" font-size="37.8795">アニマルクリニック</tspan></text>
<text transform="matrix(1 0 0 1 137.2891 139.1074)" display="none" font-family="'KozMinPro-Regular-90ms-RKSJ-H'" font-size="25.253">Heuris Animal Clinic</text>
<rect x="20" y="86" display="none" fill="#C69C6D" width="46" height="61"/>
<text transform="matrix(1 0 0 1 37.6304 118.8145)" display="none" font-family="'KozMinPro-Regular-90ms-RKSJ-H'" font-size="10.1561">犬</text>
<rect x="456.5" y="110.5" display="none" fill="#C69C6D" stroke="#000000" stroke-miterlimit="10" width="25" height="36"/>
<text transform="matrix(1 0 0 1 467.0327 131.3379)" display="none" font-family="'KozMinPro-Regular-90ms-RKSJ-H'" font-size="5.5012">猫</text>
<line display="none" fill="none" stroke="#000000" stroke-width="5" stroke-miterlimit="10" x1="12" y1="153.5" x2="491" y2="153.5"/>
<line display="none" fill="none" stroke="#000000" stroke-width="5" stroke-miterlimit="10" x1="14" y1="22.5" x2="493" y2="22.5"/>
<g display="none">
	
		<line display="inline" fill="none" stroke="#000000" stroke-width="140" stroke-miterlimit="10" x1="15" y1="87" x2="494" y2="87"/>
	
		<line display="inline" fill="none" stroke="#FFFFFF" stroke-width="130" stroke-miterlimit="10" x1="15" y1="87" x2="494" y2="87"/>
</g>
<text transform="matrix(1 0 0 1 160.3018 60.2598)" display="none"><tspan x="0" y="0" display="inline" font-family="'KozMinPro-Regular-90ms-RKSJ-H'" font-size="37.8795">ヒューリス</tspan><tspan x="-75.759" y="45.455" display="inline" font-family="'KozMinPro-Regular-90ms-RKSJ-H'" font-size="37.8795">アニマルクリニック</tspan></text>
<text transform="matrix(1 0 0 1 139.5952 139.1074)" display="none" font-family="'KozMinPro-Regular-90ms-RKSJ-H'" font-size="25.253">Heuris Animal Clinic</text>
<path display="none" fill-rule="evenodd" clip-rule="evenodd" fill="#231815" d="M21.61,131.471l0.001,0.013
	c0.977-6.001,5.508-16.757,25.542-33.289c2.086-1.722-0.35-3.723,7.328-10.004c1.927-1.576-1.512-5.118,1.861-12.33
	c-4.454-5.234-3.839-13.843-4.42-17.216c-0.683-3.96,5.449,2.939,8.375,6.398c1.28,1.512,4.188,0,6.281,0.697
	c1.561,0.521,2.094-7.794,4.42-8.841c2.326-1.046,2.792,8.376,2.093,11.167c1.164,0.466,0.35,0.582,0.814,1.629
	c0.466,1.047,6.836-0.425,6.863,1.396c0.117,7.91-1.395,5.002-2.326,6.979c-0.93,1.978-3.024,2.559-4.769,3.606
	c0.582,2.791,0,14.772,1.047,17.215c1.047,2.443,4.188,4.428-2.559,16.518c-3.158,5.66,1.861,17.914,1.512,21.637
	c-0.349,3.722,2.792,7.677,6.049,7.211c2.374-0.339,3.257,1.978,3.838,3.025c0.582,1.046-1.629,1.744-2.792,1.278
	c-1.046,0.466-2.326,0.35-3.605-0.232c-1.163,0.466-2.757,0.631-3.839-1.628c-3.955-8.259-5.351-4.071-5.351-6.63
	c0-0.96-2.559-8.958-3.606-12.331c-0.232,1.978,0.775,4.429,1.047,6.398c0.465,3.373-1.396,3.955,1.861,9.422
	c2,3.357,2.21-1.629,4.42,4.886c0.462,1.363-1.396,1.629-2.21,1.163c-0.698,0.232-1.978,0.232-2.792-0.466
	c-0.814-0.697-3.025,0.233-4.072,0c-1.046-0.232-1.163-6.746-2.326-7.793c-1.163-1.048-1.861-8.607-3.35-12.679
	c-6.49,1.512-10.376,10.003-11.19,12.329c-0.814,2.326,6.63,1.745,11.632,1.513c5.002-0.233,3.723,4.652,2.094,4.885
	c-0.349,1.163-14.191-0.348-19.774,0c0.116,1.048-3.025,1.28-4.42,0.699c-0.814,0.581-5.351-1.047-12.33-0.932
	c-1.645,0.028-3.257-2.209-2.094-3.489c0.351-0.385,0.402-0.992,0.354-1.679c-0.469,0.554,0.054,2.514-1.052,0.516
	c-1.611-2.908,1.047,5.002-3.606-2.442c-1.569-2.512,2.56,5.001-0.349,1.628C13.302,138.324,20.166,136.58,21.61,131.471z"/>
<path display="none" fill="#231815" d="M428.084,101.076l-0.003-0.002c0-0.651-0.031-1.146,0.235-1.498
	c0.586-1.518,2.337-1.442,3.027-2.132c0.403-4.253,6.949-4.492,9.584-4.447c0.322-1.087,0.352-3.461,1.115-4.819
	c0.083-0.325,0.206-0.531,0.393-0.531c0.831,0.83,3.468,7.153,5.563,7.875c2.685,0.927,4.877,8.925,6.142,10.188
	c1.265,1.265,9.683-5.419,18.425,5.636c5.997,7.583,5.636,14.379,5.636,20.449c10.911,0,12.067,17.63-2.602,9.755
	c-1.228,2.745-4.19,5.708-12.717,4.334c-0.927-0.148-12.356,4.986-14.235,1.663c-2.528,0.866-7.659,1.951-5.058-2.963
	c-2.312-1.663,1.518-5.274,1.518-5.274s0.187-1.419-0.289-2.963c-1.232-4.003-13.01-8.771-13.587-15.925
	c-0.261-3.237,0.776-10.136,1.047-11.382C432.545,107.814,427.402,107.556,428.084,101.076z"/>
<g display="none">
	
		<line display="inline" fill="none" stroke="#000000" stroke-width="140" stroke-miterlimit="10" x1="15" y1="87" x2="494" y2="87"/>
	
		<line display="inline" fill="none" stroke="#FFFFFF" stroke-width="130" stroke-miterlimit="10" x1="15" y1="87" x2="494" y2="87"/>
</g>
<text transform="matrix(1 0 0 1 30.4985 78.7666)" display="none"><tspan x="0" y="0" display="inline" font-family="'KozMinPro-Regular-90ms-RKSJ-H'" font-size="37.8795">ヒューリス</tspan><tspan x="0" y="45.455" display="inline" font-family="'KozMinPro-Regular-90ms-RKSJ-H'" font-size="37.8795">アニマルクリニック</tspan></text>
<path display="none" fill-rule="evenodd" clip-rule="evenodd" fill="#231815" d="M479.264,126.793
	c-0.511-0.913-3.212-1.599-4.062-1.786c-4.21-2.976-5.992-6.522-8.669-8.622c-2.677-2.1-7.2-3.81-8.057-5.381
	c0.75-3.4,3.549-15.862,4.204-16.854c3.133-4.758,3.465-9.497,2.284-18.707c0.817-1.202,0.886-16.049,1.369-17.986
	c0.482-1.938-2.695-6.89-4.244-7.757c-0.054-0.509-0.873-4.459-1.493-4.646c-0.283,0.216-0.593,0.367-0.898,0.532
	c-0.08-1.092-0.059-2.403-0.059-2.573c0.318-1.763,5.278-7.193,0.801-12.778c-0.545-0.679-5.655-4.508-8.24-3.161
	c-3.3-0.643-8.464,4.33-6.104,6.329c-0.562,0.561,0.465,2.172,0.465,3.015c0,1.295-1.944,2.108-1.944,2.785
	c0,0.68,0.778,0.52,1.037,0.778c0.81,0.811-0.581,0.779,0.259,1.62c-0.395,0.396,0.158,0.982,0.378,1.204
	c0.221,0.219-0.254,1.566,0.476,1.867c1.232,0.507,2.453,0.234,3.108,0.352c0.987,0.176,1.41,1.483,1.41,2.061
	c-2.495,3.113-5.392,10.571-4.74,11.874c0.485,0.973-0.991,9.96-1.203,15.204c-2.517,3.018-6.468,9.382-8.935,11.196
	c-0.691,0.508-3.376,1.332-3.874,1.64c-0.416,0.258-0.623,2.419-0.466,3.246c-5.648,6.727-27.389,21.842-36.064,26.567
	c-0.376-0.29-0.757-0.495-1.062-0.472c-0.367,0.028-2.123-2.123-2.684-2.733c-2.229-2.433-3.798-2.33-4.102-2.533
	c-0.304-0.202-0.608-0.76-1.216-0.911c-0.607-0.152-0.558,0.505-0.811,0.607c-0.253,0.102-2.886,0.202-3.14,0.202
	c-0.254,0-0.81-0.404-1.164-0.558c-0.355-0.15-1.671-1.67-2.583-1.113c-0.563,0.344,0.71,3.545,0.962,4.71
	c-1.621,1.163-1.612,3.139-1.41,3.747c-0.151,0.253-1.966,1.62-2.473,1.823c-0.505,0.203-1.367,1.317,1.014,2.634
	c-0.152,1.974,4.591,1.467,5.047,1.216c0.861,0.557,3.241,5.974,4,6.685c0.373,0.345,1.672,2.936,2.533,3.999
	c0.698,0.862,2.025,8.762,2.077,9.469c0.05,0.709-0.457,1.419-1.014,2.482c-0.202,0-2.683,0.758-2.278,1.62
	c0.186,0.395,1.823,0.558,2.532,0.405c0.557-0.152,1.438,0.149,1.975-0.405c1.519-1.57,2.431-7.597,2.48-10.837
	c2.663,0.212,1.067,6.036,1.706,6.515c0.639,0.479,2.633,2.792,3.67,2.792c1.037,0,2.553-1.117,2.474-1.995
	c-0.08-0.878-1.596-1.196-2.154-0.958c-0.559-0.718-0.638-2.313-0.24-3.271c0.399-0.958,0.708-2.575,0.673-4.398
	c-0.024-1.291,9.47-3.849,11.496-4.964c0,5.202,5.127,7.513,5.127,10.788s-1.933,4.505-2.42,4.446
	c-2.454-0.293-3.013,0.64-2.902,1.44c0.212,1.541,5.186,0.811,5.148,0c-0.039-0.808,3.103-4.081,3.088-4.688
	c-0.07-2.868,0.607-4.992,1.506-6.807c1.379,0.89,2.825,1.456,3.527,2.687c0.596,1.041,2.212,4.627,2.636,7.133
	c0.424,2.504,2.213,2.747,3.122,2.504c0.832-0.225,0.27-1.888-0.733-3.313c-1.002-1.427-2.432-6.358-2.432-9.313
	c0-0.771-1.837-2.348-3.42-4.323c0.789-1.435,1.373-2.935,1.373-4.806c1.671,0.049,6.077-1.925,6.077-5.724
	c0-3.048-2.178-3.596-3.241-3.695c-1.064-0.102-1.925,2.379-2.38,2.025c-0.456-0.355-3.029-3.688-8.659-3.596
	c-5.216,0.086-13.116,2.127-14.332,2.076c-1.214-0.051-4.101-0.151-6.229,0.607c-0.105-0.144-0.239-0.295-0.371-0.446
	c8.829-4.919,30.405-19.767,36.179-26.774c0.282,0.047,0.544,0.065,0.646,0.055c0.002,0.354,0.931,1.025,1.501,0.491
	c0.647,0.212,0.814,0.257,1.017,0.146c0.203-0.113,0.721-0.013,0.923-0.214c0.119-0.117,0.263-0.377,0.3-0.642
	c0.545,1.227,0.992,2.652,1.368,3.913c0.709,2.383,1.056,3.442,1.819,3.6c0.044,0.009,0.098,0.017,0.16,0.017
	c0.2,0,0.478-0.076,0.746-0.397c0.875-1.05,0.894-3.595,0.041-5.793c-0.658-1.694-1.724-2.903-3.057-3.586
	c0.33-0.431,0.643-0.812,0.822-0.968c2.161-1.87,3.756-3.08,5.047-3.997c-0.631,2.007-1.275,3.881-1.454,4.793
	c-0.361,1.836-1.272,15.709-1.383,16.943c-0.459,5.104-2.545,10.169,3.144,12.709c-0.224,1.821-0.151,5.32,0,8.123
	c0.225,4.146-3.144,11.01-3.958,14.001c-1.434,0.845-5.123,2.615-6.995,3.228c-1.874,0.612-2.961,2.109-2.493,2.614
	s3.436,1.902,6.39,2.225c4.575,0.498,4.106-1.113,10.409-0.392c2.162,0.247,1.305-7.334,1.305-7.334s0.509-0.199,1.956-0.439
	c3.821-10.856,3.967-17.119,3.967-17.119c1.801,1.334,9.726,3.311,10.878,3.742c1.153,0.433,0.461,4.729,2.569,6.813
	c0.224,0.808,0.606,3.521-0.165,5.4c-0.771,1.881,1.541,4.129,2.5,4.028c0.958-0.101,3.537-1.894,3.654-2.599
	c0.116-0.704,1.967-7.126,2.261-8.264C477.189,130.749,479.775,127.709,479.264,126.793z M440.514,92.349
	c0.717,1.846,0.689,3.817,0.192,4.634c-0.283-0.463-0.671-1.762-0.963-2.744c-0.481-1.613-1.051-3.526-1.858-4.99
	C439.382,89.975,440.155,91.424,440.514,92.349z"/>
<g display="none">
	
		<line display="inline" fill="none" stroke="#B3903D" stroke-width="140" stroke-miterlimit="10" x1="15" y1="87" x2="494" y2="87"/>
	
		<line display="inline" fill="none" stroke="#FFFFFF" stroke-width="130" stroke-miterlimit="10" x1="15" y1="87" x2="494" y2="87"/>
</g>
<text transform="matrix(1 0 0 1 30.4985 78.7666)" display="none"><tspan x="0" y="0" display="inline" fill="#B3903D" font-family="'KozMinPro-Regular-90ms-RKSJ-H'" font-size="37.8795">ヒューリス</tspan><tspan x="0" y="45.455" display="inline" fill="#B3903D" font-family="'KozMinPro-Regular-90ms-RKSJ-H'" font-size="37.8795">アニマルクリニック</tspan></text>
<path display="none" fill-rule="evenodd" clip-rule="evenodd" fill="#B3903D" d="M479.264,126.793
	c-0.511-0.913-3.212-1.599-4.062-1.786c-4.21-2.976-5.992-6.522-8.669-8.622c-2.677-2.1-7.2-3.81-8.057-5.381
	c0.75-3.4,3.549-15.862,4.204-16.854c3.133-4.758,3.465-9.497,2.284-18.707c0.817-1.202,0.886-16.049,1.369-17.986
	c0.482-1.938-2.695-6.89-4.244-7.757c-0.054-0.509-0.873-4.459-1.493-4.646c-0.283,0.216-0.593,0.367-0.898,0.532
	c-0.08-1.092-0.059-2.403-0.059-2.573c0.318-1.763,5.278-7.193,0.801-12.778c-0.545-0.679-5.655-4.508-8.24-3.161
	c-3.3-0.643-8.464,4.33-6.104,6.329c-0.562,0.561,0.465,2.172,0.465,3.015c0,1.295-1.944,2.108-1.944,2.785
	c0,0.68,0.778,0.52,1.037,0.778c0.81,0.811-0.581,0.779,0.259,1.62c-0.395,0.396,0.158,0.982,0.378,1.204
	c0.221,0.219-0.254,1.566,0.476,1.867c1.232,0.507,2.453,0.234,3.108,0.352c0.987,0.176,1.41,1.483,1.41,2.061
	c-2.495,3.113-5.392,10.571-4.74,11.874c0.485,0.973-0.991,9.96-1.203,15.204c-2.517,3.018-6.468,9.382-8.935,11.196
	c-0.691,0.508-3.376,1.332-3.874,1.64c-0.416,0.258-0.623,2.419-0.466,3.246c-5.648,6.727-27.389,21.842-36.064,26.567
	c-0.376-0.29-0.757-0.495-1.062-0.472c-0.367,0.028-2.123-2.123-2.684-2.733c-2.229-2.433-3.798-2.33-4.102-2.533
	c-0.304-0.202-0.608-0.76-1.216-0.911c-0.607-0.152-0.558,0.505-0.811,0.607c-0.253,0.102-2.886,0.202-3.14,0.202
	c-0.254,0-0.81-0.404-1.164-0.558c-0.355-0.15-1.671-1.67-2.583-1.113c-0.563,0.344,0.71,3.545,0.962,4.71
	c-1.621,1.163-1.612,3.139-1.41,3.747c-0.151,0.253-1.966,1.62-2.473,1.823c-0.505,0.203-1.367,1.317,1.014,2.634
	c-0.152,1.974,4.591,1.467,5.047,1.216c0.861,0.557,3.241,5.974,4,6.685c0.373,0.345,1.672,2.936,2.533,3.999
	c0.698,0.862,2.025,8.762,2.077,9.469c0.05,0.709-0.457,1.419-1.014,2.482c-0.202,0-2.683,0.758-2.278,1.62
	c0.186,0.395,1.823,0.558,2.532,0.405c0.557-0.152,1.438,0.149,1.975-0.405c1.519-1.57,2.431-7.597,2.48-10.837
	c2.663,0.212,1.067,6.036,1.706,6.515c0.639,0.479,2.633,2.792,3.67,2.792c1.037,0,2.553-1.117,2.474-1.995
	c-0.08-0.878-1.596-1.196-2.154-0.958c-0.559-0.718-0.638-2.313-0.24-3.271c0.399-0.958,0.708-2.575,0.673-4.398
	c-0.024-1.291,9.47-3.849,11.496-4.964c0,5.202,5.127,7.513,5.127,10.788s-1.933,4.505-2.42,4.446
	c-2.454-0.293-3.013,0.64-2.902,1.44c0.212,1.541,5.186,0.811,5.148,0c-0.039-0.808,3.103-4.081,3.088-4.688
	c-0.07-2.868,0.607-4.992,1.506-6.807c1.379,0.89,2.825,1.456,3.527,2.687c0.596,1.041,2.212,4.627,2.636,7.133
	c0.424,2.504,2.213,2.747,3.122,2.504c0.832-0.225,0.27-1.888-0.733-3.313c-1.002-1.427-2.432-6.358-2.432-9.313
	c0-0.771-1.837-2.348-3.42-4.323c0.789-1.435,1.373-2.935,1.373-4.806c1.671,0.049,6.077-1.925,6.077-5.724
	c0-3.048-2.178-3.596-3.241-3.695c-1.064-0.102-1.925,2.379-2.38,2.025c-0.456-0.355-3.029-3.688-8.659-3.596
	c-5.216,0.086-13.116,2.127-14.332,2.076c-1.214-0.051-4.101-0.151-6.229,0.607c-0.105-0.144-0.239-0.295-0.371-0.446
	c8.829-4.919,30.405-19.767,36.179-26.774c0.282,0.047,0.544,0.065,0.646,0.055c0.002,0.354,0.931,1.025,1.501,0.491
	c0.647,0.212,0.814,0.257,1.017,0.146c0.203-0.113,0.721-0.013,0.923-0.214c0.119-0.117,0.263-0.377,0.3-0.642
	c0.545,1.227,0.992,2.652,1.368,3.913c0.709,2.383,1.056,3.442,1.819,3.6c0.044,0.009,0.098,0.017,0.16,0.017
	c0.2,0,0.478-0.076,0.746-0.397c0.875-1.05,0.894-3.595,0.041-5.793c-0.658-1.694-1.724-2.903-3.057-3.586
	c0.33-0.431,0.643-0.812,0.822-0.968c2.161-1.87,3.756-3.08,5.047-3.997c-0.631,2.007-1.275,3.881-1.454,4.793
	c-0.361,1.836-1.272,15.709-1.383,16.943c-0.459,5.104-2.545,10.169,3.144,12.709c-0.224,1.821-0.151,5.32,0,8.123
	c0.225,4.146-3.144,11.01-3.958,14.001c-1.434,0.845-5.123,2.615-6.995,3.228c-1.874,0.612-2.961,2.109-2.493,2.614
	s3.436,1.902,6.39,2.225c4.575,0.498,4.106-1.113,10.409-0.392c2.162,0.247,1.305-7.334,1.305-7.334s0.509-0.199,1.956-0.439
	c3.821-10.856,3.967-17.119,3.967-17.119c1.801,1.334,9.726,3.311,10.878,3.742c1.153,0.433,0.461,4.729,2.569,6.813
	c0.224,0.808,0.606,3.521-0.165,5.4c-0.771,1.881,1.541,4.129,2.5,4.028c0.958-0.101,3.537-1.894,3.654-2.599
	c0.116-0.704,1.967-7.126,2.261-8.264C477.189,130.749,479.775,127.709,479.264,126.793z M440.514,92.349
	c0.717,1.846,0.689,3.817,0.192,4.634c-0.283-0.463-0.671-1.762-0.963-2.744c-0.481-1.613-1.051-3.526-1.858-4.99
	C439.382,89.975,440.155,91.424,440.514,92.349z"/>
<text transform="matrix(1 0 0 1 30.4985 78.7666)" display="none"><tspan x="0" y="0" display="inline" fill="#B3903D" font-family="'KozMinPro-Regular-90ms-RKSJ-H'" font-size="37.8795">ヒューリス</tspan><tspan x="0" y="45.455" display="inline" fill="#B3903D" font-family="'KozMinPro-Regular-90ms-RKSJ-H'" font-size="37.8795">アニマルクリニック</tspan></text>
<path display="none" fill-rule="evenodd" clip-rule="evenodd" fill="#B3903D" d="M479.264,126.793
	c-0.511-0.913-3.212-1.599-4.062-1.786c-4.21-2.976-5.992-6.522-8.669-8.622c-2.677-2.1-7.2-3.81-8.057-5.381
	c0.75-3.4,3.549-15.862,4.204-16.854c3.133-4.758,3.465-9.497,2.284-18.707c0.817-1.202,0.886-16.049,1.369-17.986
	c0.482-1.938-2.695-6.89-4.244-7.757c-0.054-0.509-0.873-4.459-1.493-4.646c-0.283,0.216-0.593,0.367-0.898,0.532
	c-0.08-1.092-0.059-2.403-0.059-2.573c0.318-1.763,5.278-7.193,0.801-12.778c-0.545-0.679-5.655-4.508-8.24-3.161
	c-3.3-0.643-8.464,4.33-6.104,6.329c-0.562,0.561,0.465,2.172,0.465,3.015c0,1.295-1.944,2.108-1.944,2.785
	c0,0.68,0.778,0.52,1.037,0.778c0.81,0.811-0.581,0.779,0.259,1.62c-0.395,0.396,0.158,0.982,0.378,1.204
	c0.221,0.219-0.254,1.566,0.476,1.867c1.232,0.507,2.453,0.234,3.108,0.352c0.987,0.176,1.41,1.483,1.41,2.061
	c-2.495,3.113-5.392,10.571-4.74,11.874c0.485,0.973-0.991,9.96-1.203,15.204c-2.517,3.018-6.468,9.382-8.935,11.196
	c-0.691,0.508-3.376,1.332-3.874,1.64c-0.416,0.258-0.623,2.419-0.466,3.246c-5.648,6.727-27.389,21.842-36.064,26.567
	c-0.376-0.29-0.757-0.495-1.062-0.472c-0.367,0.028-2.123-2.123-2.684-2.733c-2.229-2.433-3.798-2.33-4.102-2.533
	c-0.304-0.202-0.608-0.76-1.216-0.911c-0.607-0.152-0.558,0.505-0.811,0.607c-0.253,0.102-2.886,0.202-3.14,0.202
	c-0.254,0-0.81-0.404-1.164-0.558c-0.355-0.15-1.671-1.67-2.583-1.113c-0.563,0.344,0.71,3.545,0.962,4.71
	c-1.621,1.163-1.612,3.139-1.41,3.747c-0.151,0.253-1.966,1.62-2.473,1.823c-0.505,0.203-1.367,1.317,1.014,2.634
	c-0.152,1.974,4.591,1.467,5.047,1.216c0.861,0.557,3.241,5.974,4,6.685c0.373,0.345,1.672,2.936,2.533,3.999
	c0.698,0.862,2.025,8.762,2.077,9.469c0.05,0.709-0.457,1.419-1.014,2.482c-0.202,0-2.683,0.758-2.278,1.62
	c0.186,0.395,1.823,0.558,2.532,0.405c0.557-0.152,1.438,0.149,1.975-0.405c1.519-1.57,2.431-7.597,2.48-10.837
	c2.663,0.212,1.067,6.036,1.706,6.515c0.639,0.479,2.633,2.792,3.67,2.792c1.037,0,2.553-1.117,2.474-1.995
	c-0.08-0.878-1.596-1.196-2.154-0.958c-0.559-0.718-0.638-2.313-0.24-3.271c0.399-0.958,0.708-2.575,0.673-4.398
	c-0.024-1.291,9.47-3.849,11.496-4.964c0,5.202,5.127,7.513,5.127,10.788s-1.933,4.505-2.42,4.446
	c-2.454-0.293-3.013,0.64-2.902,1.44c0.212,1.541,5.186,0.811,5.148,0c-0.039-0.808,3.103-4.081,3.088-4.688
	c-0.07-2.868,0.607-4.992,1.506-6.807c1.379,0.89,2.825,1.456,3.527,2.687c0.596,1.041,2.212,4.627,2.636,7.133
	c0.424,2.504,2.213,2.747,3.122,2.504c0.832-0.225,0.27-1.888-0.733-3.313c-1.002-1.427-2.432-6.358-2.432-9.313
	c0-0.771-1.837-2.348-3.42-4.323c0.789-1.435,1.373-2.935,1.373-4.806c1.671,0.049,6.077-1.925,6.077-5.724
	c0-3.048-2.178-3.596-3.241-3.695c-1.064-0.102-1.925,2.379-2.38,2.025c-0.456-0.355-3.029-3.688-8.659-3.596
	c-5.216,0.086-13.116,2.127-14.332,2.076c-1.214-0.051-4.101-0.151-6.229,0.607c-0.105-0.144-0.239-0.295-0.371-0.446
	c8.829-4.919,30.405-19.767,36.179-26.774c0.282,0.047,0.544,0.065,0.646,0.055c0.002,0.354,0.931,1.025,1.501,0.491
	c0.647,0.212,0.814,0.257,1.017,0.146c0.203-0.113,0.721-0.013,0.923-0.214c0.119-0.117,0.263-0.377,0.3-0.642
	c0.545,1.227,0.992,2.652,1.368,3.913c0.709,2.383,1.056,3.442,1.819,3.6c0.044,0.009,0.098,0.017,0.16,0.017
	c0.2,0,0.478-0.076,0.746-0.397c0.875-1.05,0.894-3.595,0.041-5.793c-0.658-1.694-1.724-2.903-3.057-3.586
	c0.33-0.431,0.643-0.812,0.822-0.968c2.161-1.87,3.756-3.08,5.047-3.997c-0.631,2.007-1.275,3.881-1.454,4.793
	c-0.361,1.836-1.272,15.709-1.383,16.943c-0.459,5.104-2.545,10.169,3.144,12.709c-0.224,1.821-0.151,5.32,0,8.123
	c0.225,4.146-3.144,11.01-3.958,14.001c-1.434,0.845-5.123,2.615-6.995,3.228c-1.874,0.612-2.961,2.109-2.493,2.614
	s3.436,1.902,6.39,2.225c4.575,0.498,4.106-1.113,10.409-0.392c2.162,0.247,1.305-7.334,1.305-7.334s0.509-0.199,1.956-0.439
	c3.821-10.856,3.967-17.119,3.967-17.119c1.801,1.334,9.726,3.311,10.878,3.742c1.153,0.433,0.461,4.729,2.569,6.813
	c0.224,0.808,0.606,3.521-0.165,5.4c-0.771,1.881,1.541,4.129,2.5,4.028c0.958-0.101,3.537-1.894,3.654-2.599
	c0.116-0.704,1.967-7.126,2.261-8.264C477.189,130.749,479.775,127.709,479.264,126.793z M440.514,92.349
	c0.717,1.846,0.689,3.817,0.192,4.634c-0.283-0.463-0.671-1.762-0.963-2.744c-0.481-1.613-1.051-3.526-1.858-4.99
	C439.382,89.975,440.155,91.424,440.514,92.349z"/>
<line display="none" fill="none" stroke="#B3903D" stroke-width="5" stroke-miterlimit="10" x1="15" y1="19.5" x2="494" y2="19.5"/>
<line display="none" fill="none" stroke="#B3903D" stroke-width="5" stroke-miterlimit="10" x1="15" y1="154.5" x2="494" y2="154.5"/>
<path fill="#B3903D" d="M155.957,43.348c0.147-0.248,0.648-0.436,1.119-0.436c1.208,0,3.151,1.18,3.151,2.449
	c0,0.621-0.707,0.279-1.59,0.838c-3.593,2.201-8.629,4.434-12.634,5.52c-0.177,7.068,0.383,8.186,5.006,8.186
	c1.266,0,7.598-0.031,8.57-0.961c1.473,0.217,2.768,0.402,2.768,1.363c0,0.744-1.826,1.023-2.916,1.117
	c-2.326,0.186-5.36,0.248-7.451,0.248c-5.595,0-7.657-0.621-7.657-8.682c0-1.457,0.029-3.35,0.059-4.9
	c0.029-1.828,0.147-3.721,0.147-4.93c0-1.271,0-2.541-2.179-2.541l-0.029-0.031c0.029-0.59,0.972-1.023,1.679-1.023
	c1.295,0,3.092,0.898,3.092,2.016c0,0.402-0.176,0.527-0.324,0.805c-0.147,0.219-0.265,0.59-0.324,1.24
	c-0.176,2.109-0.383,4.932-0.412,7.256c3.181-1.178,10.985-5.271,10.985-6.604c0-0.342-0.413-0.775-1.031-0.869L155.957,43.348z"/>
<path fill="#B3903D" d="M181.402,50.293c-0.648,0.029-5.801,0.619-7.039,1.27c-0.353,0.188-0.5,0.219-0.766,0.219
	c-0.883,0-1.943-1.459-1.943-2.451c0-0.557,0.235-0.867,0.677-1.053c0,1.52,1.354,1.52,1.796,1.52c0.206,0,4.388-0.219,6.567-0.436
	c0.471-0.061,0.707-0.248,0.854-0.402c0.294-0.342,0.5-0.65,0.854-0.65c0.383,0,2.032,1.27,2.032,1.859
	c0,0.342-0.471,0.496-0.677,0.682c-0.294,0.248-0.324,0.436-0.442,1.148c-0.235,2.17-0.854,5.859-1.325,8.186
	c2.827,0,3.21,0,3.77-0.652c1.178,0.465,2.68,1.24,2.68,2.016c0,0.434-0.354,0.59-0.825,0.59c-0.854,0-1.148-0.404-3.063-0.621
	c-0.647-0.061-1.59-0.123-2.68-0.123c-2.503,0-5.86,0.217-8.835,0.619c-0.53,0.094-1.06,0.248-1.443,0.404
	c-0.236,0.092-0.589,0.402-0.883,0.402c-1.061,0-2.209-1.488-2.209-2.418c0-0.373,0.118-0.869,0.56-1.117l0.088,0.031
	c0.206,1.426,1.679,1.426,2.121,1.426c0.5,0,7.922-0.465,9.129-0.525c0.442-2.947,1.001-7.689,1.119-9.799L181.402,50.293z"/>
<path fill="#B3903D" d="M211.412,49.797c1.944,0,3.092-0.248,3.563-0.248c1.414,0,3.239,0.525,3.239,1.301
	c0,0.527-0.53,0.807-1.678,0.807c-0.53,0-1.149,0-1.738-0.031c-1.266-0.063-3.563-0.063-5.36-0.063c-3.475,0-11.309,0-12.751,0.559
	c-0.383,0.156-0.766,0.465-1.267,0.465c-1.06,0-3.033-1.922-3.033-3.162c0-0.744,0.177-1.178,0.56-1.551l0.206-0.031
	c0.324,1.645,1.473,1.955,4.477,1.955H211.412z"/>
<path fill="#B3903D" d="M222.809,40.99c0.147-0.496,0.795-0.867,1.473-0.867c0.942,0,3.063,0.836,3.063,2.045
	c0,0.217-0.147,0.684-0.294,1.117c-0.177,0.527-0.236,1.24-0.236,2.572c0,0.992,0.059,5.83,0.059,6.945
	c0,1.271-0.206,2.389-1.031,2.389c-0.913,0-1.325-1.426-1.325-2.885c0-0.402,0.354-0.588,0.383-2.82
	c0.029-1.365,0.029-2.854,0.029-3.814c0-3.287-0.059-4.527-2.091-4.588L222.809,40.99z M234.294,39.131
	c0.059-0.467,0.854-1.055,1.472-1.055c1.149,0,3.475,0.898,3.475,1.828c0,0.279-0.294,0.467-0.412,0.684
	c-0.088,0.154-0.177,0.465-0.177,0.744v7.844c0,7.814-3.446,12.65-11.632,15.1l-0.383-0.713c6.891-2.76,10.013-7.225,10.013-14.541
	v-4.527c0-3.658,0-5.488-2.327-5.303L234.294,39.131z"/>
<path fill="#B3903D" d="M244.603,62.477c7.097-4.371,14.312-13.363,16.639-20.152c0.029-0.125,0.059-0.188,0.059-0.248
	c0-0.125-0.088-0.188-0.294-0.188c-0.383,0-5.802,0.59-8.423,1.148c-0.736,0.154-1.001,0.311-1.296,0.496
	c-0.265,0.186-0.412,0.402-0.883,0.402c-1.031,0-2.65-1.674-2.65-2.852c0-0.9,0.619-1.209,0.707-1.209
	c0.147,1.643,1.797,1.643,2.975,1.643c0.854,0,7.097-0.465,9.218-0.713c0.471-0.094,0.648-0.217,0.854-0.434
	c0.235-0.248,0.589-0.559,0.825-0.559c0.589,0,2.533,1.58,2.533,2.076c0,0.467-0.383,0.59-0.825,0.744
	c-0.413,0.188-0.677,0.559-0.825,0.869c-0.972,1.984-3.239,5.984-5.065,8.34c2.739,1.551,6.125,3.908,7.833,5.645
	c1.296,1.363,2.444,2.883,2.444,3.875c0,0.807-0.471,1.551-1.207,1.551c-0.678,0-1.237-1.055-2.268-2.76
	c-1.237-2.016-4.8-5.799-7.451-7.504c-2.68,3.41-7.362,7.938-12.486,10.48L244.603,62.477z"/>
<path fill="#B3903D" d="M155.221,81.09c2.739-2.883,4.447-6.697,4.447-6.852c0-0.094-0.118-0.217-0.236-0.217
	c-3.475,0.217-10.366,0.775-11.957,1.023c-1.354,0.186-2.326,0.34-2.797,0.527c-0.619,0.279-0.913,0.619-1.473,0.619
	c-1.119,0-2.68-1.859-2.68-2.914c0-0.744,0.206-1.271,0.795-1.674l0.118,0.031c0.059,1.24,1.001,2.014,2.621,2.014
	c2.916,0,12.31-0.588,14.695-0.773c0.619-0.063,0.854-0.125,1.148-0.373c0.413-0.342,0.736-0.682,1.001-0.682
	c0.589,0,2.739,2.076,2.739,2.82c0,0.404-0.471,0.559-1.09,0.715c-0.5,0.092-0.883,0.34-1.354,0.961
	c-1.208,1.52-3.063,3.689-5.418,5.332L155.221,81.09z M148.889,79.168c0.118-0.465,0.825-0.992,1.62-0.992
	c1.266,0,3.269,0.9,3.269,1.768c0,0.248-0.177,0.373-0.324,0.527c-0.177,0.186-0.383,0.744-0.589,1.611
	c-1.325,5.645-3.858,10.914-10.278,14.945l-0.471-0.588c7.48-5.924,8.717-14.977,8.717-15.969c0-0.93-0.589-1.24-1.473-1.24
	c-0.147,0-0.294,0-0.441,0.031L148.889,79.168z"/>
<path fill="#B3903D" d="M169.092,91.012c0.235,0,0.5,0,0.795-0.029c4.477-0.311,11.103-0.715,14.607-0.838
	c1.237-0.094,1.885-0.279,2.65-0.869c1.561,0.342,3.534,1.334,3.534,2.203c0,0.496-0.442,0.867-0.913,0.867
	c-0.883,0-2.444-0.559-4.476-0.619c-0.442,0-0.942-0.031-1.473-0.031c-3.623,0-9.218,0.279-13.134,0.992
	c-1.355,0.248-1.738,0.682-2.386,0.682c-0.913,0-2.856-1.861-2.856-3.039c0-0.496,0.265-1.084,0.56-1.084
	C166.589,90.578,167.59,91.012,169.092,91.012z M182.845,78.021c-8.217,0.65-10.602,0.836-10.808,0.836
	c-1.119,0-2.768-1.115-2.768-2.201c0-0.279,0.118-0.992,0.324-1.115c0.589,1.084,1.767,1.643,3.622,1.643
	c1.885,0,6.096-0.279,8.158-0.775c0.854-0.217,1.62-0.682,1.914-1.115c1.296,0.186,3.181,0.836,3.181,1.736
	C186.467,77.928,185.083,77.805,182.845,78.021z"/>
<path fill="#B3903D" d="M200.221,82.641c2.415,1.117,4.947,2.543,6.42,3.721c4.771-3.969,8.334-8.619,8.334-9.209
	c0-0.123-0.088-0.154-0.265-0.154c-0.471,0-10.985,0.713-14.931,1.271c-1.119,0.186-1.531,0.371-1.796,0.496
	c-0.294,0.092-0.766,0.465-1.208,0.465c-1.06,0-2.739-2.17-2.739-3.41c0-0.527,0.206-1.055,0.736-1.24
	c0.383,1.58,1.708,2.045,3.239,2.045c1.885,0,12.104-0.465,16.374-0.867c0.766-0.063,1.355-1.146,1.855-1.146
	c0.56,0,2.974,2.076,2.974,2.758c0,0.373-0.5,0.527-1.089,0.744c-0.294,0.125-0.736,0.279-1.031,0.621
	c-2.062,2.387-6.008,5.922-9.748,8.217c2.002,1.643,3.976,4.248,3.976,5.984c0,0.805-0.413,1.457-1.061,1.457
	c-0.883,0-1.325-1.365-1.914-2.512c-1.855-3.566-4.535-5.953-8.511-8.588L200.221,82.641z"/>
<path fill="#B3903D" d="M225.754,77.061c0.206-0.465,0.883-0.961,1.531-0.961c1.208,0,3.328,0.992,3.328,1.891
	c0,0.371-0.265,0.496-0.413,0.775c-0.147,0.217-0.177,0.434-0.235,0.836c-0.766,6.605-2.769,12.59-7.863,16.807l-0.589-0.559
	c4.093-4.371,6.066-11.068,6.361-17.021c0-1.303-0.942-1.768-2.091-1.645L225.754,77.061z M248.077,80.656
	c-1.973,6.635-5.654,10.48-10.131,13.084c-0.56,0.342-0.883,0.652-1.119,0.963c-0.353,0.465-0.53,0.898-0.854,0.898
	c-0.618,0-1.914-1.457-1.914-2.326c0-0.402,0.265-0.713,0.442-1.053c0.118-0.279,0.177-0.807,0.206-1.707
	c0.059-1.705,0.088-5.053,0.088-8.277c0-2.791-0.029-5.488-0.059-6.914c-0.029-1.271-0.088-2.232-0.707-2.512
	c-0.413-0.217-0.972-0.311-1.531-0.248l-0.03-0.031c0.118-0.559,0.677-1.117,1.59-1.117c1.208,0,3.328,0.869,3.328,1.955
	c0,0.402-0.206,0.619-0.412,0.961c-0.236,0.309-0.354,0.775-0.383,1.488c-0.177,3.008-0.206,8.092-0.206,12.65v3.256
	c0.029,0.154,0.059,0.217,0.177,0.217c0.5,0,7.715-3.566,10.837-11.598L248.077,80.656z"/>
<path fill="#B3903D" d="M252.436,85.369c5.331-4.496,8.158-11.193,8.158-12.99c0-0.963-1.325-1.055-1.649-1.055
	c0.206-0.527,0.677-0.93,1.561-0.93c1.178,0,3.387,1.27,3.387,2.076c0,0.373-0.354,0.465-0.648,0.744
	c-0.177,0.125-0.412,0.342-0.619,0.775c-0.383,0.992-1.001,2.139-1.62,3.193c1.325,0.125,5.979-0.402,7.775-0.682
	c0.589-0.094,0.824-0.311,1.031-0.559c0.235-0.279,0.441-0.527,0.677-0.527c0.589,0,2.562,1.551,2.562,2.078
	c0,0.371-0.354,0.465-0.766,0.682c-0.265,0.125-0.677,0.59-0.854,1.117c-2.592,7.627-7.245,14.17-16.403,17.859l-0.413-0.621
	c7.922-4.092,12.604-10.729,14.843-18.293c0.059-0.186,0.088-0.342,0.088-0.434c0-0.156-0.088-0.217-0.236-0.217
	c-1.148,0-6.479,1.178-7.274,1.178c-0.854,0-1.354-0.186-1.737-0.496c-1.738,2.729-4.094,5.611-7.392,7.658L252.436,85.369z"/>
<path fill="#B3903D" d="M276.998,73.99c0.147-0.496,0.795-0.867,1.473-0.867c0.942,0,3.063,0.836,3.063,2.045
	c0,0.217-0.147,0.684-0.294,1.117c-0.177,0.527-0.236,1.24-0.236,2.572c0,0.992,0.059,5.83,0.059,6.945
	c0,1.271-0.206,2.389-1.031,2.389c-0.913,0-1.325-1.426-1.325-2.885c0-0.402,0.354-0.588,0.383-2.82
	c0.029-1.365,0.029-2.854,0.029-3.814c0-3.287-0.059-4.527-2.091-4.588L276.998,73.99z M288.483,72.131
	c0.059-0.467,0.854-1.055,1.472-1.055c1.149,0,3.475,0.898,3.475,1.828c0,0.279-0.294,0.467-0.412,0.684
	c-0.088,0.154-0.177,0.465-0.177,0.744v7.844c0,7.814-3.446,12.65-11.632,15.1l-0.383-0.713c6.891-2.76,10.013-7.225,10.013-14.541
	v-4.527c0-3.658,0-5.488-2.327-5.303L288.483,72.131z"/>
<path fill="#B3903D" d="M301.913,91.012c0.235,0,0.5,0,0.795-0.029c4.477-0.311,11.103-0.715,14.607-0.838
	c1.237-0.094,1.885-0.279,2.65-0.869c1.561,0.342,3.534,1.334,3.534,2.203c0,0.496-0.442,0.867-0.913,0.867
	c-0.883,0-2.444-0.559-4.476-0.619c-0.442,0-0.942-0.031-1.473-0.031c-3.623,0-9.218,0.279-13.134,0.992
	c-1.355,0.248-1.738,0.682-2.386,0.682c-0.913,0-2.856-1.861-2.856-3.039c0-0.496,0.265-1.084,0.56-1.084
	C299.409,90.578,300.411,91.012,301.913,91.012z M315.666,78.021c-8.217,0.65-10.602,0.836-10.808,0.836
	c-1.119,0-2.768-1.115-2.768-2.201c0-0.279,0.118-0.992,0.324-1.115c0.589,1.084,1.767,1.643,3.622,1.643
	c1.885,0,6.096-0.279,8.158-0.775c0.854-0.217,1.62-0.682,1.914-1.115c1.296,0.186,3.181,0.836,3.181,1.736
	C319.288,77.928,317.903,77.805,315.666,78.021z"/>
<path fill="#B3903D" d="M328.064,79.881c1.973,1.055,3.652,3.318,3.652,4.992c0,0.869-0.383,1.52-0.942,1.52
	c-0.619,0-0.913-0.311-0.972-1.023c-0.088-1.674-1.001-3.596-2.209-5.023L328.064,79.881z M331.774,96.688
	c9.483-4.838,12.045-14.822,12.045-16.154c0-0.838-0.972-1.086-1.62-1.117c0-0.186,0.383-0.807,1.178-0.807
	c1.237,0,3.063,1.365,3.063,2.141c0,0.371-0.324,0.527-0.56,0.713c-0.088,0.063-0.235,0.217-0.294,0.465
	c-2.032,6.635-6.273,12.309-13.429,15.41L331.774,96.688z M334.808,78.424c2.208,1.645,3.151,3.721,3.151,5.146
	c0,1.24-0.412,1.924-1.031,1.924c-0.589,0-0.972-0.373-0.972-1.18c-0.03-1.549-0.265-3.564-1.649-5.58L334.808,78.424z"/>
<path fill="#B3903D" d="M351.389,85.369c5.331-4.496,8.158-11.193,8.158-12.99c0-0.963-1.325-1.055-1.649-1.055
	c0.206-0.527,0.677-0.93,1.561-0.93c1.178,0,3.387,1.27,3.387,2.076c0,0.373-0.354,0.465-0.648,0.744
	c-0.177,0.125-0.413,0.342-0.619,0.775c-0.383,0.992-1.001,2.139-1.62,3.193c1.325,0.125,5.979-0.402,7.775-0.682
	c0.589-0.094,0.824-0.311,1.031-0.559c0.235-0.279,0.441-0.527,0.677-0.527c0.589,0,2.562,1.551,2.562,2.078
	c0,0.371-0.354,0.465-0.766,0.682c-0.265,0.125-0.677,0.59-0.854,1.117c-2.592,7.627-7.245,14.17-16.403,17.859l-0.413-0.621
	c7.922-4.092,12.604-10.729,14.843-18.293c0.059-0.186,0.088-0.342,0.088-0.434c0-0.156-0.088-0.217-0.236-0.217
	c-1.148,0-6.479,1.178-7.274,1.178c-0.854,0-1.354-0.186-1.737-0.496c-1.738,2.729-4.094,5.611-7.392,7.658L351.389,85.369z"/>
<linearGradient id="SVGID_2_" gradientUnits="userSpaceOnUse" x1="394.291" y1="91.2012" x2="475" y2="91.2012">
	<stop  offset="0" style="stop-color:#F4DB8C"/>
	<stop  offset="0" style="stop-color:#F0CC7E"/>
	<stop  offset="0" style="stop-color:#EECA7C"/>
	<stop  offset="0" style="stop-color:#E9C576"/>
	<stop  offset="0" style="stop-color:#EECA7C"/>
	<stop  offset="0" style="stop-color:#EAC678"/>
	<stop  offset="0" style="stop-color:#C7A352"/>
	<stop  offset="0" style="stop-color:#B99544"/>
	<stop  offset="0" style="stop-color:#E6C17A"/>
	<stop  offset="0" style="stop-color:#EFCA84"/>
	<stop  offset="0.0919" style="stop-color:#E7C27B"/>
	<stop  offset="0.4736" style="stop-color:#CBA759"/>
	<stop  offset="0.79" style="stop-color:#B99644"/>
	<stop  offset="1" style="stop-color:#B3903D"/>
</linearGradient>
<path fill-rule="evenodd" clip-rule="evenodd" fill="url(#SVGID_2_)" d="M474.948,121.841c-0.398-0.711-2.503-1.244-3.165-1.391
	c-3.279-2.317-4.669-5.082-6.754-6.718c-2.086-1.637-5.61-2.969-6.278-4.191c0.584-2.651,2.766-12.36,3.275-13.134
	c2.44-3.707,2.7-7.399,1.779-14.576c0.637-0.937,0.69-12.503,1.067-14.014c0.375-1.51-2.1-5.367-3.307-6.044
	c-0.042-0.396-0.681-3.474-1.164-3.618c-0.22,0.168-0.462,0.285-0.699,0.414c-0.063-0.851-0.046-1.872-0.046-2.006
	c0.247-1.373,4.112-5.604,0.624-9.954c-0.424-0.531-4.405-3.514-6.42-2.465c-2.571-0.5-6.596,3.375-4.756,4.931
	c-0.438,0.438,0.361,1.692,0.361,2.351c0,1.008-1.515,1.643-1.515,2.169c0,0.53,0.606,0.404,0.808,0.606
	c0.631,0.632-0.453,0.607,0.202,1.264c-0.308,0.308,0.123,0.765,0.295,0.938c0.172,0.171-0.198,1.221,0.37,1.454
	c0.961,0.396,1.911,0.183,2.422,0.274c0.77,0.138,1.099,1.155,1.099,1.605c-1.944,2.426-4.201,8.237-3.693,9.252
	c0.378,0.758-0.772,7.761-0.938,11.847c-1.961,2.351-5.04,7.309-6.961,8.724c-0.539,0.396-2.631,1.038-3.019,1.276
	c-0.324,0.201-0.486,1.886-0.363,2.529c-4.401,5.241-21.341,17.019-28.1,20.701c-0.293-0.227-0.59-0.387-0.827-0.368
	c-0.286,0.022-1.654-1.653-2.092-2.13c-1.736-1.896-2.959-1.815-3.195-1.974c-0.236-0.157-0.474-0.592-0.946-0.71
	s-0.435,0.394-0.632,0.474c-0.197,0.079-2.249,0.158-2.446,0.158c-0.198,0-0.631-0.316-0.907-0.436
	c-0.276-0.117-1.303-1.302-2.013-0.867c-0.438,0.268,0.554,2.763,0.749,3.67c-1.262,0.906-1.255,2.446-1.098,2.919
	c-0.118,0.197-1.533,1.264-1.927,1.422c-0.394,0.157-1.066,1.026,0.79,2.051c-0.119,1.538,3.576,1.144,3.932,0.948
	c0.671,0.433,2.526,4.654,3.117,5.208c0.289,0.268,1.302,2.287,1.973,3.116c0.544,0.672,1.578,6.825,1.618,7.378
	c0.039,0.552-0.356,1.105-0.79,1.934c-0.157,0-2.09,0.591-1.774,1.263c0.145,0.308,1.42,0.434,1.973,0.315
	c0.434-0.119,1.12,0.116,1.538-0.315c1.184-1.225,1.894-5.919,1.934-8.444c2.074,0.165,0.831,4.703,1.329,5.076
	c0.497,0.372,2.051,2.175,2.858,2.175c0.809,0,1.989-0.87,1.928-1.554c-0.063-0.684-1.243-0.933-1.679-0.746
	c-0.435-0.56-0.497-1.804-0.187-2.55c0.312-0.744,0.552-2.004,0.523-3.426c-0.019-1.006,7.379-2.999,8.957-3.868
	c0,4.053,3.996,5.853,3.996,8.406c0,2.552-1.506,3.509-1.887,3.465c-1.911-0.229-2.347,0.497-2.261,1.121
	c0.165,1.201,4.04,0.632,4.011,0c-0.029-0.629,2.418-3.18,2.406-3.653c-0.054-2.234,0.474-3.889,1.174-5.303
	c1.074,0.692,2.201,1.135,2.749,2.092c0.464,0.813,1.723,3.607,2.054,5.559c0.33,1.95,1.725,2.139,2.433,1.95
	c0.647-0.173,0.209-1.47-0.571-2.581c-0.781-1.112-1.895-4.954-1.895-7.256c0-0.602-1.432-1.83-2.665-3.369
	c0.614-1.118,1.069-2.286,1.069-3.745c1.302,0.038,4.735-1.5,4.735-4.458c0-2.376-1.696-2.803-2.525-2.879
	c-0.828-0.079-1.5,1.853-1.854,1.577c-0.355-0.277-2.36-2.874-6.746-2.802c-4.063,0.066-10.22,1.657-11.167,1.617
	c-0.946-0.039-3.195-0.116-4.853,0.474c-0.083-0.112-0.187-0.23-0.289-0.348c6.879-3.832,23.689-15.401,28.188-20.861
	c0.22,0.036,0.424,0.052,0.504,0.043c0.002,0.276,0.725,0.798,1.169,0.382c0.505,0.166,0.635,0.2,0.793,0.114
	c0.158-0.089,0.562-0.01,0.72-0.168c0.092-0.091,0.205-0.293,0.233-0.499c0.425,0.956,0.772,2.066,1.066,3.049
	c0.552,1.857,0.821,2.683,1.416,2.805c0.034,0.008,0.076,0.013,0.125,0.013c0.156,0,0.372-0.06,0.581-0.309
	c0.683-0.818,0.697-2.801,0.031-4.513c-0.512-1.321-1.343-2.265-2.381-2.797c0.257-0.335,0.5-0.631,0.641-0.753
	c1.684-1.457,2.927-2.4,3.932-3.114c-0.491,1.563-0.994,3.023-1.133,3.733c-0.281,1.432-0.991,12.241-1.077,13.202
	c-0.358,3.978-1.983,7.924,2.449,9.904c-0.174,1.418-0.118,4.144,0,6.327c0.176,3.231-2.449,8.579-3.085,10.91
	c-1.116,0.657-3.99,2.036-5.449,2.514c-1.46,0.477-2.308,1.644-1.942,2.037c0.364,0.394,2.676,1.482,4.979,1.733
	c3.564,0.387,3.199-0.867,8.109-0.306c1.685,0.194,1.018-5.714,1.018-5.714s0.396-0.155,1.523-0.342
	c2.977-8.46,3.091-13.338,3.091-13.338c1.403,1.039,7.578,2.579,8.476,2.914c0.898,0.337,0.36,3.686,2.002,5.308
	c0.175,0.63,0.473,2.745-0.129,4.21c-0.601,1.465,1.201,3.217,1.948,3.138c0.746-0.078,2.756-1.476,2.847-2.025
	c0.09-0.549,1.532-5.553,1.762-6.438C473.331,124.925,475.347,122.555,474.948,121.841z M444.756,95.004
	c0.559,1.438,0.536,2.976,0.149,3.611c-0.22-0.361-0.522-1.374-0.75-2.138c-0.374-1.258-0.819-2.748-1.448-3.89
	C443.873,93.154,444.477,94.283,444.756,95.004z"/>
<linearGradient id="SVGID_4_" gradientUnits="userSpaceOnUse" x1="21" y1="19.5" x2="500" y2="19.5">
	<stop  offset="0" style="stop-color:#F4DB8C"/>
	<stop  offset="0" style="stop-color:#E6C17A"/>
	<stop  offset="0" style="stop-color:#EECA7C"/>
	<stop  offset="0" style="stop-color:#F0CC7E"/>
	<stop  offset="0" style="stop-color:#F0CB80"/>
	<stop  offset="0" style="stop-color:#EFCA84"/>
	<stop  offset="0" style="stop-color:#E9C576"/>
	<stop  offset="0" style="stop-color:#B99544"/>
</linearGradient>
<rect x="21" y="17" fill="url(#SVGID_4_)" width="479" height="5"/>
<linearGradient id="SVGID_5_" gradientUnits="userSpaceOnUse" x1="21" y1="25.5" x2="500" y2="25.5">
	<stop  offset="0" style="stop-color:#F4DB8C"/>
	<stop  offset="0" style="stop-color:#E6C17A"/>
	<stop  offset="0" style="stop-color:#EECA7C"/>
	<stop  offset="0" style="stop-color:#F0CC7E"/>
	<stop  offset="0" style="stop-color:#F0CB80"/>
	<stop  offset="0" style="stop-color:#EFCA84"/>
	<stop  offset="0" style="stop-color:#E9C576"/>
	<stop  offset="0" style="stop-color:#B99544"/>
</linearGradient>
<rect x="21" y="25" fill="url(#SVGID_5_)" width="479" height="1"/>
<rect x="130" y="107" fill="#B3903D" width="252" height="1"/>
<linearGradient id="SVGID_6_" gradientUnits="userSpaceOnUse" x1="21" y1="148.5" x2="500" y2="148.5">
	<stop  offset="0" style="stop-color:#F4DB8C"/>
	<stop  offset="0" style="stop-color:#E6C17A"/>
	<stop  offset="0" style="stop-color:#EECA7C"/>
	<stop  offset="0" style="stop-color:#F0CC7E"/>
	<stop  offset="0" style="stop-color:#F0CB80"/>
	<stop  offset="0" style="stop-color:#EFCA84"/>
	<stop  offset="0" style="stop-color:#E9C576"/>
	<stop  offset="0" style="stop-color:#B99544"/>
</linearGradient>
<rect x="21" y="148" fill="url(#SVGID_6_)" width="479" height="1"/>
<linearGradient id="SVGID_7_" gradientUnits="userSpaceOnUse" x1="21" y1="154.5" x2="500" y2="154.5">
	<stop  offset="0" style="stop-color:#F4DB8C"/>
	<stop  offset="0" style="stop-color:#E6C17A"/>
	<stop  offset="0" style="stop-color:#EECA7C"/>
	<stop  offset="0" style="stop-color:#F0CC7E"/>
	<stop  offset="0" style="stop-color:#F0CB80"/>
	<stop  offset="0" style="stop-color:#EFCA84"/>
	<stop  offset="0" style="stop-color:#E9C576"/>
	<stop  offset="0" style="stop-color:#B99544"/>
</linearGradient>
<rect x="21" y="152" fill="url(#SVGID_7_)" width="479" height="5"/>
<linearGradient id="SVGID_9_" gradientUnits="userSpaceOnUse" x1="44.958" y1="88.7324" x2="115.0049" y2="88.7324">
	<stop  offset="0" style="stop-color:#F4DB8C"/>
	<stop  offset="0" style="stop-color:#F0CC7E"/>
	<stop  offset="0" style="stop-color:#EECA7C"/>
	<stop  offset="0" style="stop-color:#E9C576"/>
	<stop  offset="0" style="stop-color:#EECA7C"/>
	<stop  offset="0" style="stop-color:#EAC678"/>
	<stop  offset="0" style="stop-color:#C7A352"/>
	<stop  offset="0" style="stop-color:#B99544"/>
	<stop  offset="0" style="stop-color:#EFCA84"/>
	<stop  offset="1" style="stop-color:#B3903D"/>
	<stop  offset="1" style="stop-color:#B3903D"/>
	<stop  offset="1" style="stop-color:#B3903D"/>
</linearGradient>
<polygon fill="url(#SVGID_9_)" points="93.27,53.709 66.693,53.709 66.693,75.444 44.958,75.444 44.958,102.021 66.693,102.021 
	66.693,123.756 93.27,123.756 93.27,102.021 115.005,102.021 115.005,75.444 93.27,75.444 "/>
<path fill="#B3903D" d="M146.231,124.654v2.461v0.943c0,0.487,0.044,0.805,0.134,0.95c0.089,0.132,0.257,0.221,0.503,0.267
	c0.11,0.019,0.37,0.046,0.778,0.082c0.094,0.009,0.142,0.063,0.142,0.164c0,0.114-0.053,0.171-0.157,0.171
	c-0.168-0.005-0.43-0.009-0.786-0.014c-0.723-0.019-1.25-0.027-1.58-0.027c-0.781,0-1.539,0.014-2.272,0.041
	c-0.074,0-0.11-0.053-0.11-0.157c0-0.109,0.036-0.169,0.11-0.178c0.43-0.036,0.692-0.068,0.786-0.096
	c0.162-0.046,0.28-0.13,0.354-0.253c0.11-0.155,0.176-0.412,0.197-0.772c0.01-0.164,0.016-0.538,0.016-1.121v-5.079
	c0-0.716-0.013-1.167-0.039-1.354c-0.021-0.178-0.079-0.34-0.173-0.485c-0.068-0.123-0.212-0.207-0.432-0.253
	c-0.11-0.022-0.364-0.05-0.763-0.082c-0.084-0.009-0.125-0.068-0.125-0.178c0-0.132,0.042-0.198,0.125-0.198
	c0.115,0,0.535,0.012,1.258,0.034c0.451,0.014,0.807,0.021,1.069,0.021c0.293,0,0.7-0.009,1.218-0.027
	c0.545-0.014,0.889-0.022,1.03-0.027c0.131,0,0.197,0.066,0.197,0.198c0,0.104-0.053,0.164-0.157,0.178
	c-0.424,0.041-0.684,0.073-0.778,0.096c-0.173,0.046-0.301,0.125-0.385,0.239c-0.105,0.196-0.157,0.809-0.157,1.839v1.989
	c0.687,0.027,1.646,0.041,2.877,0.041c1.189,0,2.123-0.014,2.798-0.041v-1.989c0-0.738-0.008-1.191-0.023-1.36
	c-0.016-0.183-0.061-0.342-0.134-0.479c-0.079-0.128-0.236-0.214-0.472-0.26c-0.084-0.014-0.341-0.039-0.771-0.075
	c-0.083-0.009-0.125-0.068-0.125-0.178c0-0.132,0.047-0.198,0.142-0.198c0.115,0,0.54,0.012,1.273,0.034
	c0.456,0.014,0.823,0.021,1.101,0.021c0.272,0,0.666-0.009,1.179-0.027c0.529-0.014,0.875-0.022,1.038-0.027
	c0.131,0,0.197,0.062,0.197,0.185c0,0.118-0.061,0.183-0.181,0.191c-0.44,0.041-0.717,0.079-0.829,0.112
	c-0.113,0.035-0.206,0.108-0.279,0.223c-0.152,0.219-0.228,0.832-0.228,1.839v5.079c0,0.743,0.013,1.212,0.04,1.408
	c0.021,0.183,0.079,0.344,0.173,0.485c0.089,0.132,0.249,0.221,0.479,0.267c0.11,0.022,0.37,0.05,0.778,0.082
	c0.073,0.009,0.11,0.068,0.11,0.178c0,0.104-0.047,0.157-0.141,0.157c-0.189-0.005-0.456-0.009-0.802-0.014
	c-0.723-0.019-1.237-0.027-1.541-0.027c-0.037,0-0.799,0.014-2.288,0.041c-0.095,0-0.142-0.053-0.142-0.157
	c0-0.109,0.047-0.169,0.142-0.178c0.414-0.036,0.67-0.068,0.771-0.096c0.152-0.046,0.264-0.13,0.338-0.253
	c0.131-0.219,0.196-0.85,0.196-1.894v-2.461c-0.676-0.036-1.609-0.055-2.798-0.055C147.876,124.6,146.917,124.618,146.231,124.654z"
	/>
<path fill="#B3903D" d="M158.558,125.98c-0.047,0.173-0.071,0.342-0.071,0.506c0,0.911,0.291,1.636,0.873,2.174
	c0.435,0.401,0.912,0.602,1.431,0.602c0.545,0,0.998-0.091,1.36-0.273c0.299-0.155,0.592-0.401,0.88-0.738
	c0.037-0.046,0.089-0.068,0.157-0.068c0.031,0,0.081,0.019,0.149,0.055c0.084,0.06,0.126,0.107,0.126,0.144
	c0,0.022-0.026,0.073-0.079,0.15c-0.393,0.524-0.849,0.894-1.368,1.107c-0.445,0.187-0.982,0.28-1.611,0.28
	c-1.179,0-2.12-0.36-2.822-1.08c-0.598-0.615-0.896-1.376-0.896-2.283c0-1.03,0.393-1.885,1.179-2.563
	c0.703-0.597,1.554-0.896,2.555-0.896c1.017,0,1.832,0.347,2.445,1.039c0.435,0.497,0.666,1.019,0.692,1.565
	c0,0.091-0.026,0.171-0.079,0.239c-0.047,0.046-0.128,0.068-0.244,0.068c-1.075-0.027-2.107-0.041-3.098-0.041
	C159.577,125.967,159.05,125.972,158.558,125.98z M158.636,125.475c0.535,0.009,0.93,0.014,1.187,0.014
	c0.577,0,1.185-0.021,1.824-0.062c0.095-0.009,0.142-0.082,0.142-0.219c-0.031-0.492-0.165-0.896-0.401-1.21
	c-0.241-0.323-0.563-0.485-0.967-0.485c-0.456,0-0.852,0.207-1.187,0.622C158.951,124.485,158.751,124.933,158.636,125.475z"/>
<path fill="#B3903D" d="M170.248,129.904c-0.131,0-0.197-0.057-0.197-0.171c0.031-0.41,0.047-0.774,0.047-1.094
	c-0.55,0.853-1.355,1.278-2.414,1.278c-0.592,0-1.104-0.128-1.533-0.383c-0.587-0.342-0.88-0.877-0.88-1.606l0.032-1.497v-1.107
	c0-0.552-0.021-0.911-0.063-1.08c-0.068-0.255-0.236-0.376-0.503-0.362l-0.417,0.014c-0.089,0-0.144-0.007-0.165-0.021
	c-0.021-0.019-0.034-0.063-0.039-0.137c-0.005-0.036-0.008-0.062-0.008-0.075c0-0.077,0.055-0.121,0.166-0.13
	c0.979-0.114,1.844-0.246,2.594-0.396c0.126,0,0.189,0.048,0.189,0.144c-0.042,0.889-0.063,1.704-0.063,2.447v1.47
	c0,0.684,0.06,1.133,0.181,1.347c0.205,0.451,0.595,0.677,1.171,0.677s1.048-0.271,1.415-0.813c0.226-0.323,0.338-0.692,0.338-1.107
	v-1.976c0-0.442-0.032-0.798-0.095-1.066c-0.068-0.265-0.236-0.39-0.503-0.376l-0.433,0.027h-0.055
	c-0.079,0-0.124-0.057-0.134-0.171c-0.005-0.046-0.008-0.07-0.008-0.075c0-0.068,0.06-0.109,0.181-0.123
	c0.666-0.068,1.51-0.203,2.531-0.403c0.115,0,0.173,0.043,0.173,0.13c-0.032,0.679-0.047,1.499-0.047,2.461v1.935
	c0,0.757,0.031,1.219,0.094,1.388c0.073,0.169,0.272,0.262,0.598,0.28l0.307,0.014c0.104,0.009,0.157,0.063,0.157,0.164
	c0,0.104-0.047,0.157-0.142,0.157C171.964,129.701,171.138,129.781,170.248,129.904z"/>
<path fill="#B3903D" d="M176.332,124.62c0.655-1.025,1.347-1.538,2.075-1.538c0.288,0,0.516,0.046,0.684,0.137
	c0.136,0.077,0.204,0.178,0.204,0.301c0,0.287-0.107,0.542-0.322,0.766c-0.178,0.187-0.361,0.28-0.55,0.28
	c-0.125,0-0.286-0.057-0.479-0.171c-0.173-0.091-0.312-0.137-0.417-0.137c-0.236,0-0.485,0.139-0.747,0.417
	c-0.298,0.319-0.448,0.731-0.448,1.237v1.709c0,0.856,0.037,1.352,0.11,1.483c0.063,0.104,0.178,0.173,0.346,0.205
	c0.073,0.014,0.277,0.034,0.613,0.062c0.074,0,0.11,0.06,0.11,0.178c0,0.096-0.037,0.144-0.11,0.144
	c-0.146-0.005-0.356-0.009-0.629-0.014c-0.566-0.019-0.964-0.027-1.195-0.027c-0.005,0-0.634,0.014-1.887,0.041
	c-0.084,0-0.125-0.048-0.125-0.144c0-0.104,0.042-0.164,0.125-0.178c0.325-0.027,0.524-0.053,0.598-0.075
	c0.125-0.032,0.212-0.096,0.259-0.191c0.105-0.178,0.157-0.672,0.157-1.483v-2.071c0-0.528-0.042-0.911-0.126-1.148
	c-0.068-0.205-0.23-0.308-0.487-0.308c-0.026,0-0.047,0-0.063,0l-0.401,0.027c-0.042,0-0.07,0-0.086,0
	c-0.084,0-0.131-0.053-0.141-0.157c0-0.022,0-0.043,0-0.062c0-0.077,0.065-0.128,0.196-0.15c0.88-0.155,1.74-0.364,2.579-0.629
	c0.136,0,0.204,0.043,0.204,0.13C176.348,124.019,176.332,124.475,176.332,124.62z"/>
<path fill="#B3903D" d="M180.978,125.604c0-0.569-0.026-0.964-0.079-1.183c-0.068-0.191-0.226-0.287-0.472-0.287
	c-0.053,0-0.095,0-0.126,0l-0.417,0.027c-0.042,0-0.074,0-0.095,0c-0.063,0-0.1-0.053-0.11-0.157
	c-0.005-0.041-0.008-0.068-0.008-0.082c0-0.068,0.06-0.111,0.181-0.13c0.891-0.178,1.761-0.392,2.61-0.643
	c0.126,0,0.189,0.048,0.189,0.144c-0.042,0.911-0.063,1.738-0.063,2.481v1.832c0,0.848,0.037,1.347,0.11,1.497
	c0.063,0.101,0.178,0.164,0.346,0.191c0.079,0.014,0.27,0.029,0.574,0.048c0.073,0.009,0.11,0.068,0.11,0.178
	c0,0.114-0.037,0.171-0.11,0.171c-0.131-0.005-0.33-0.009-0.597-0.014c-0.55-0.019-0.946-0.027-1.188-0.027
	c-0.068,0-0.676,0.014-1.824,0.041c-0.105,0-0.157-0.057-0.157-0.171c0-0.118,0.047-0.178,0.142-0.178
	c0.293-0.019,0.487-0.039,0.582-0.062c0.126-0.036,0.215-0.096,0.268-0.178c0.089-0.128,0.134-0.424,0.134-0.889v-0.608V125.604z
	 M181.677,119.254c0.289,0,0.545,0.107,0.771,0.321c0.199,0.187,0.299,0.395,0.299,0.622c0,0.255-0.126,0.483-0.377,0.684
	c-0.215,0.173-0.445,0.26-0.692,0.26c-0.298,0-0.566-0.109-0.802-0.328c-0.199-0.187-0.299-0.392-0.299-0.615
	c0-0.265,0.128-0.494,0.385-0.69C181.177,119.338,181.416,119.254,181.677,119.254z"/>
<path fill="#B3903D" d="M189.617,123.239c0.047,0.738,0.094,1.28,0.142,1.627c0,0.073-0.061,0.116-0.181,0.13
	c-0.026,0.005-0.05,0.007-0.071,0.007c-0.063,0-0.118-0.034-0.165-0.103c-0.535-0.952-1.164-1.429-1.887-1.429
	c-0.839,0-1.258,0.333-1.258,0.998c0,0.369,0.403,0.699,1.21,0.991l0.566,0.212c0.844,0.323,1.41,0.624,1.698,0.902
	c0.335,0.323,0.503,0.757,0.503,1.299c0,0.588-0.254,1.073-0.763,1.456c-0.514,0.383-1.203,0.574-2.067,0.574
	c-0.802,0-1.564-0.132-2.288-0.396c-0.157-0.47-0.275-0.976-0.354-1.518c0-0.073,0.052-0.114,0.157-0.123
	c0.052-0.005,0.089-0.007,0.11-0.007c0.047,0,0.086,0.029,0.118,0.089c0.288,0.497,0.652,0.887,1.092,1.169
	c0.388,0.255,0.776,0.383,1.164,0.383c0.487,0,0.854-0.132,1.101-0.396c0.199-0.214,0.299-0.499,0.299-0.854
	c0-0.292-0.147-0.538-0.44-0.738c-0.178-0.123-0.524-0.292-1.038-0.506l-0.55-0.226c-0.729-0.296-1.208-0.561-1.438-0.793
	c-0.289-0.296-0.433-0.704-0.433-1.224c0-0.479,0.228-0.877,0.684-1.196c0.466-0.323,1.087-0.485,1.863-0.485
	c0.288,0,0.673,0.046,1.156,0.137c0.173,0.032,0.351,0.048,0.534,0.048C189.24,123.267,189.418,123.258,189.617,123.239z"/>
<path fill="#B3903D" d="M203.304,125.844c-0.724-0.036-1.336-0.055-1.84-0.055c-0.414,0-1.08,0.019-1.997,0.055l-0.613,1.47
	c-0.178,0.433-0.267,0.793-0.267,1.08c0,0.173,0.034,0.335,0.102,0.485c0.11,0.228,0.527,0.378,1.25,0.451
	c0.094,0,0.142,0.06,0.142,0.178c0,0.123-0.061,0.185-0.181,0.185c-0.393-0.019-1.061-0.027-2.004-0.027
	c-0.776,0-1.339,0.009-1.69,0.027c-0.12,0-0.181-0.062-0.181-0.185c0-0.118,0.061-0.178,0.181-0.178
	c0.325-0.046,0.64-0.191,0.943-0.438c0.309-0.265,0.637-0.809,0.983-1.634l1.934-4.539c0.482-1.13,0.87-2.11,1.164-2.939
	l1.266-0.506c0.115,0,0.186,0.043,0.212,0.13c0.079,0.21,0.524,1.342,1.336,3.397l1.816,4.566c0.325,0.834,0.595,1.365,0.81,1.593
	c0.136,0.15,0.278,0.246,0.425,0.287c0.11,0.032,0.314,0.06,0.613,0.082c0.141,0,0.212,0.06,0.212,0.178
	c0,0.123-0.071,0.185-0.212,0.185c-0.954-0.019-1.714-0.027-2.28-0.027c-0.556,0-1.313,0.009-2.272,0.027
	c-0.084,0-0.126-0.062-0.126-0.185c0-0.118,0.042-0.178,0.126-0.178c0.67-0.032,1.042-0.155,1.116-0.369
	c0.031-0.082,0.047-0.171,0.047-0.267c0-0.237-0.113-0.638-0.338-1.203L203.304,125.844z M201.433,120.997l-0.723,1.805l-1.03,2.481
	c0.351,0.019,0.946,0.027,1.785,0.027c0.765,0,1.302-0.009,1.612-0.027l-0.967-2.454C201.936,122.4,201.71,121.79,201.433,120.997z"
	/>
<path fill="#B3903D" d="M210.976,124.429c0.592-0.889,1.423-1.333,2.492-1.333c0.535,0,1.022,0.132,1.462,0.396
	c0.592,0.351,0.889,0.887,0.889,1.606l-0.016,1.559v0.964c0,0.829,0.042,1.324,0.125,1.483c0.058,0.101,0.163,0.169,0.314,0.205
	c0.079,0.019,0.254,0.039,0.527,0.062c0.083,0.014,0.126,0.068,0.126,0.164c0,0.104-0.042,0.157-0.126,0.157
	c-0.005,0-0.325-0.009-0.959-0.027c-0.325-0.009-0.59-0.014-0.794-0.014c-0.231,0-0.553,0.005-0.967,0.014
	c-0.487,0.019-0.778,0.027-0.873,0.027c-0.084,0-0.125-0.053-0.125-0.157c0-0.109,0.042-0.164,0.125-0.164
	c0.278-0.019,0.461-0.041,0.55-0.068c0.126-0.036,0.217-0.103,0.275-0.198c0.083-0.15,0.125-0.645,0.125-1.483v-1.907
	c0-0.556-0.065-0.957-0.196-1.203c-0.231-0.47-0.621-0.704-1.171-0.704c-0.299,0-0.59,0.087-0.873,0.26
	c-0.236,0.146-0.427,0.326-0.574,0.54c-0.225,0.328-0.338,0.702-0.338,1.121v1.894c0,0.87,0.032,1.365,0.094,1.483
	c0.063,0.104,0.176,0.173,0.338,0.205c0.063,0.014,0.246,0.034,0.55,0.062c0.094,0.009,0.141,0.063,0.141,0.164
	c0,0.104-0.047,0.157-0.141,0.157c-0.131-0.005-0.325-0.009-0.582-0.014c-0.529-0.019-0.909-0.027-1.14-0.027
	c-0.241,0-0.566,0.005-0.975,0.014c-0.498,0.019-0.791,0.027-0.88,0.027c-0.073,0-0.11-0.053-0.11-0.157
	c0-0.096,0.037-0.15,0.11-0.164c0.32-0.027,0.514-0.053,0.582-0.075c0.125-0.032,0.217-0.096,0.275-0.191
	c0.073-0.132,0.11-0.627,0.11-1.483v-2.071c0-0.615-0.037-1.007-0.11-1.176c-0.084-0.196-0.23-0.294-0.44-0.294
	c-0.026,0-0.047,0-0.063,0l-0.433,0.027c-0.037,0-0.063,0-0.079,0c-0.089,0-0.139-0.053-0.149-0.157c0-0.022,0-0.043,0-0.062
	c0-0.077,0.065-0.128,0.197-0.15c0.817-0.137,1.667-0.342,2.547-0.615c0.126,0,0.189,0.039,0.189,0.116
	C210.987,123.499,210.976,123.896,210.976,124.429z"/>
<path fill="#B3903D" d="M218.759,125.604c0-0.569-0.026-0.964-0.079-1.183c-0.068-0.191-0.226-0.287-0.472-0.287
	c-0.053,0-0.095,0-0.126,0l-0.417,0.027c-0.042,0-0.074,0-0.095,0c-0.063,0-0.1-0.053-0.11-0.157
	c-0.005-0.041-0.008-0.068-0.008-0.082c0-0.068,0.06-0.111,0.181-0.13c0.891-0.178,1.761-0.392,2.61-0.643
	c0.126,0,0.189,0.048,0.189,0.144c-0.042,0.911-0.063,1.738-0.063,2.481v1.832c0,0.848,0.037,1.347,0.11,1.497
	c0.063,0.101,0.178,0.164,0.346,0.191c0.079,0.014,0.27,0.029,0.574,0.048c0.073,0.009,0.11,0.068,0.11,0.178
	c0,0.114-0.037,0.171-0.11,0.171c-0.131-0.005-0.33-0.009-0.597-0.014c-0.55-0.019-0.946-0.027-1.188-0.027
	c-0.068,0-0.676,0.014-1.824,0.041c-0.105,0-0.157-0.057-0.157-0.171c0-0.118,0.047-0.178,0.142-0.178
	c0.293-0.019,0.487-0.039,0.582-0.062c0.126-0.036,0.215-0.096,0.268-0.178c0.089-0.128,0.134-0.424,0.134-0.889v-0.608V125.604z
	 M219.458,119.254c0.289,0,0.545,0.107,0.771,0.321c0.199,0.187,0.299,0.395,0.299,0.622c0,0.255-0.126,0.483-0.377,0.684
	c-0.215,0.173-0.445,0.26-0.692,0.26c-0.298,0-0.566-0.109-0.802-0.328c-0.199-0.187-0.299-0.392-0.299-0.615
	c0-0.265,0.128-0.494,0.385-0.69C218.958,119.338,219.197,119.254,219.458,119.254z"/>
<path fill="#B3903D" d="M229.623,124.483c0.613-0.925,1.449-1.388,2.508-1.388c0.529,0,1.006,0.132,1.431,0.396
	c0.571,0.351,0.856,0.887,0.856,1.606l-0.016,1.559v0.964c0,0.848,0.037,1.342,0.11,1.483c0.063,0.096,0.186,0.164,0.369,0.205
	c0.073,0.014,0.252,0.034,0.535,0.062c0.084,0.014,0.126,0.063,0.126,0.15c0,0.114-0.042,0.171-0.126,0.171l-1.769-0.041
	c-0.231,0-0.556,0.005-0.975,0.014c-0.493,0.014-0.792,0.022-0.896,0.027c-0.094,0-0.142-0.057-0.142-0.171
	c0-0.101,0.047-0.15,0.142-0.15c0.309-0.027,0.498-0.053,0.566-0.075c0.126-0.032,0.217-0.096,0.275-0.191
	c0.083-0.15,0.125-0.645,0.125-1.483v-1.907c0-0.538-0.06-0.938-0.181-1.203c-0.194-0.47-0.569-0.704-1.125-0.704
	c-0.561,0-1.021,0.267-1.383,0.8c-0.226,0.319-0.338,0.684-0.338,1.094v1.921c0,0.848,0.037,1.342,0.11,1.483
	c0.052,0.101,0.17,0.169,0.354,0.205c0.084,0.014,0.272,0.034,0.566,0.062c0.073,0.009,0.11,0.063,0.11,0.164
	c0,0.104-0.042,0.157-0.125,0.157c-0.032,0-0.359-0.009-0.983-0.027c-0.33-0.009-0.592-0.014-0.786-0.014
	c-0.241,0-0.566,0.005-0.975,0.014c-0.503,0.019-0.792,0.027-0.865,0.027c-0.095,0-0.142-0.057-0.142-0.171
	c0-0.101,0.047-0.15,0.142-0.15c0.277-0.019,0.461-0.041,0.55-0.068c0.125-0.036,0.217-0.103,0.275-0.198
	c0.084-0.15,0.126-0.645,0.126-1.483v-1.907v-0.28c0-0.369-0.061-0.677-0.181-0.923c-0.204-0.47-0.584-0.704-1.14-0.704
	c-0.54,0-0.991,0.267-1.352,0.8c-0.236,0.342-0.354,0.716-0.354,1.121v1.894c0,0.87,0.032,1.365,0.094,1.483
	c0.053,0.104,0.17,0.173,0.354,0.205c0.052,0.009,0.236,0.029,0.55,0.062c0.083,0.014,0.126,0.073,0.126,0.178
	c0,0.096-0.042,0.144-0.126,0.144c-1.179-0.027-1.774-0.041-1.785-0.041c-0.236,0-0.553,0.005-0.951,0.014
	c-0.482,0.019-0.768,0.027-0.857,0.027c-0.094,0-0.142-0.053-0.142-0.157c0-0.101,0.047-0.155,0.142-0.164
	c0.309-0.027,0.498-0.053,0.566-0.075c0.131-0.032,0.226-0.096,0.283-0.191c0.079-0.118,0.118-0.396,0.118-0.834v-0.649v-2.071
	c0-0.606-0.037-0.993-0.11-1.162c-0.084-0.196-0.236-0.294-0.456-0.294c-0.047,0-0.084,0-0.11,0l-0.385,0.027
	c-0.037,0-0.063,0-0.079,0c-0.079,0-0.123-0.053-0.134-0.157c0-0.022,0-0.046,0-0.068c0-0.073,0.061-0.121,0.181-0.144
	c0.828-0.155,1.688-0.36,2.578-0.615c0.115,0,0.173,0.039,0.173,0.116c-0.021,0.524-0.032,0.916-0.032,1.176
	c0.268-0.446,0.631-0.791,1.093-1.032c0.382-0.2,0.775-0.301,1.179-0.301c0.556,0,1.035,0.116,1.438,0.349
	C229.172,123.686,229.461,124.032,229.623,124.483z"/>
<path fill="#B3903D" d="M240.731,129.091c-0.346,0.301-0.679,0.511-0.998,0.629c-0.352,0.132-0.771,0.198-1.258,0.198
	c-0.755,0-1.316-0.189-1.683-0.567c-0.251-0.26-0.377-0.565-0.377-0.916c0-0.483,0.184-0.9,0.55-1.251
	c0.226-0.173,0.527-0.321,0.904-0.444c0.142-0.05,0.527-0.157,1.156-0.321c0.561-0.146,0.98-0.314,1.258-0.506
	c0.246-0.164,0.369-0.347,0.369-0.547v-0.39c0-0.993-0.322-1.49-0.967-1.49c-0.346,0-0.626,0.094-0.841,0.28
	c-0.188,0.146-0.283,0.408-0.283,0.786c0,0.214-0.118,0.383-0.354,0.506c-0.215,0.114-0.511,0.171-0.888,0.171
	c-0.419,0-0.629-0.15-0.629-0.451c0-0.405,0.328-0.791,0.982-1.155c0.634-0.351,1.381-0.526,2.241-0.526
	c1.053,0,1.748,0.21,2.083,0.629c0.199,0.255,0.299,0.67,0.299,1.244c0,0.096,0,0.166,0,0.212l-0.039,2.933
	c-0.011,0.815,0.183,1.224,0.582,1.224c0.173,0,0.33-0.032,0.472-0.096c0.026-0.009,0.05-0.014,0.071-0.014
	c0.052,0,0.097,0.029,0.134,0.089c0.031,0.041,0.047,0.073,0.047,0.096c0,0.036-0.031,0.073-0.094,0.109
	c-0.32,0.214-0.776,0.321-1.368,0.321C241.412,129.843,240.957,129.592,240.731,129.091z M240.652,126.138
	c-0.136,0.173-0.566,0.378-1.289,0.615c-0.786,0.269-1.179,0.759-1.179,1.47c0,0.369,0.128,0.665,0.385,0.889
	c0.194,0.173,0.403,0.26,0.629,0.26c0.44,0,0.802-0.137,1.085-0.41c0.236-0.228,0.354-0.497,0.354-0.807L240.652,126.138z"/>
<path fill="#B3903D" d="M245.942,127.594v-6.303c0-0.487-0.037-0.87-0.11-1.148c-0.058-0.214-0.217-0.321-0.479-0.321
	c-0.026,0-0.044,0-0.055,0l-0.433,0.027c-0.031,0-0.055,0-0.071,0c-0.073,0-0.115-0.053-0.125-0.157c0-0.027,0-0.05,0-0.068
	c0-0.073,0.055-0.121,0.165-0.144c0.807-0.132,1.692-0.335,2.657-0.608c0.125,0,0.188,0.032,0.188,0.096
	c-0.053,1.764-0.079,2.912-0.079,3.445v5.182c0,0.875,0.037,1.374,0.11,1.497c0.063,0.104,0.176,0.176,0.338,0.212
	c0.083,0.022,0.272,0.046,0.566,0.068c0.073,0.009,0.11,0.063,0.11,0.164c0,0.104-0.042,0.157-0.125,0.157
	c-0.603-0.027-1.188-0.041-1.753-0.041c-0.624,0-1.234,0.014-1.832,0.041c-0.121,0-0.181-0.053-0.181-0.157
	c0-0.101,0.052-0.155,0.157-0.164c0.299-0.027,0.49-0.055,0.574-0.082c0.11-0.036,0.194-0.103,0.251-0.198
	C245.9,128.932,245.942,128.433,245.942,127.594z"/>
<path fill="#B3903D" d="M265.052,119.637c0.063,0.711,0.155,1.522,0.275,2.434c0,0.014,0,0.025,0,0.034
	c0,0.082-0.055,0.137-0.165,0.164c-0.037,0.005-0.068,0.007-0.094,0.007c-0.063,0-0.118-0.041-0.166-0.123
	c-0.477-0.802-0.959-1.388-1.446-1.757c-0.598-0.438-1.284-0.656-2.06-0.656c-1.273,0-2.303,0.497-3.089,1.49
	c-0.697,0.884-1.046,1.991-1.046,3.322c0,1.386,0.454,2.518,1.36,3.397c0.791,0.761,1.742,1.142,2.854,1.142
	c1.703,0,3.024-0.649,3.962-1.948c0.026-0.046,0.065-0.068,0.118-0.068c0.047,0,0.115,0.019,0.204,0.055
	c0.095,0.036,0.142,0.087,0.142,0.15c0,0.027-0.01,0.06-0.031,0.096c-1.075,1.695-2.652,2.543-4.732,2.543
	c-1.903,0-3.433-0.561-4.591-1.682c-1.006-0.976-1.509-2.192-1.509-3.65c0-1.659,0.655-2.994,1.965-4.006
	c1.137-0.88,2.537-1.319,4.198-1.319c0.661,0,1.342,0.075,2.044,0.226c0.571,0.123,1.009,0.185,1.313,0.185
	C264.72,119.671,264.885,119.659,265.052,119.637z"/>
<path fill="#B3903D" d="M268.754,127.594v-6.303c0-0.487-0.037-0.87-0.11-1.148c-0.058-0.214-0.217-0.321-0.479-0.321
	c-0.026,0-0.044,0-0.055,0l-0.433,0.027c-0.031,0-0.055,0-0.071,0c-0.073,0-0.115-0.053-0.125-0.157c0-0.027,0-0.05,0-0.068
	c0-0.073,0.055-0.121,0.165-0.144c0.807-0.132,1.692-0.335,2.657-0.608c0.126,0,0.189,0.032,0.189,0.096
	c-0.053,1.764-0.079,2.912-0.079,3.445v5.182c0,0.875,0.037,1.374,0.11,1.497c0.063,0.104,0.176,0.176,0.338,0.212
	c0.083,0.022,0.272,0.046,0.566,0.068c0.073,0.009,0.11,0.063,0.11,0.164c0,0.104-0.042,0.157-0.125,0.157
	c-0.603-0.027-1.187-0.041-1.753-0.041c-0.624,0-1.234,0.014-1.832,0.041c-0.121,0-0.181-0.053-0.181-0.157
	c0-0.101,0.052-0.155,0.157-0.164c0.298-0.027,0.49-0.055,0.574-0.082c0.11-0.036,0.194-0.103,0.251-0.198
	C268.712,128.932,268.754,128.433,268.754,127.594z"/>
<path fill="#B3903D" d="M273.965,125.604c0-0.569-0.026-0.964-0.079-1.183c-0.068-0.191-0.226-0.287-0.472-0.287
	c-0.053,0-0.095,0-0.126,0l-0.417,0.027c-0.042,0-0.074,0-0.095,0c-0.063,0-0.1-0.053-0.11-0.157
	c-0.005-0.041-0.008-0.068-0.008-0.082c0-0.068,0.06-0.111,0.181-0.13c0.891-0.178,1.761-0.392,2.61-0.643
	c0.126,0,0.189,0.048,0.189,0.144c-0.042,0.911-0.063,1.738-0.063,2.481v1.832c0,0.848,0.037,1.347,0.11,1.497
	c0.063,0.101,0.178,0.164,0.346,0.191c0.079,0.014,0.27,0.029,0.574,0.048c0.073,0.009,0.11,0.068,0.11,0.178
	c0,0.114-0.037,0.171-0.11,0.171c-0.131-0.005-0.33-0.009-0.597-0.014c-0.55-0.019-0.946-0.027-1.188-0.027
	c-0.068,0-0.676,0.014-1.824,0.041c-0.105,0-0.157-0.057-0.157-0.171c0-0.118,0.047-0.178,0.142-0.178
	c0.293-0.019,0.487-0.039,0.582-0.062c0.126-0.036,0.215-0.096,0.268-0.178c0.089-0.128,0.134-0.424,0.134-0.889v-0.608V125.604z
	 M274.665,119.254c0.289,0,0.545,0.107,0.771,0.321c0.199,0.187,0.299,0.395,0.299,0.622c0,0.255-0.126,0.483-0.377,0.684
	c-0.215,0.173-0.445,0.26-0.692,0.26c-0.298,0-0.566-0.109-0.802-0.328c-0.199-0.187-0.299-0.392-0.299-0.615
	c0-0.265,0.128-0.494,0.385-0.69C274.164,119.338,274.403,119.254,274.665,119.254z"/>
<path fill="#B3903D" d="M280.254,124.429c0.592-0.889,1.423-1.333,2.492-1.333c0.535,0,1.022,0.132,1.462,0.396
	c0.592,0.351,0.888,0.887,0.888,1.606l-0.016,1.559v0.964c0,0.829,0.042,1.324,0.125,1.483c0.058,0.101,0.163,0.169,0.314,0.205
	c0.079,0.019,0.254,0.039,0.527,0.062c0.083,0.014,0.125,0.068,0.125,0.164c0,0.104-0.042,0.157-0.125,0.157
	c-0.005,0-0.325-0.009-0.959-0.027c-0.325-0.009-0.59-0.014-0.794-0.014c-0.231,0-0.553,0.005-0.967,0.014
	c-0.487,0.019-0.778,0.027-0.873,0.027c-0.084,0-0.125-0.053-0.125-0.157c0-0.109,0.042-0.164,0.125-0.164
	c0.278-0.019,0.461-0.041,0.55-0.068c0.126-0.036,0.217-0.103,0.275-0.198c0.083-0.15,0.125-0.645,0.125-1.483v-1.907
	c0-0.556-0.065-0.957-0.196-1.203c-0.231-0.47-0.621-0.704-1.171-0.704c-0.299,0-0.59,0.087-0.873,0.26
	c-0.236,0.146-0.427,0.326-0.574,0.54c-0.226,0.328-0.338,0.702-0.338,1.121v1.894c0,0.87,0.032,1.365,0.094,1.483
	c0.063,0.104,0.176,0.173,0.338,0.205c0.063,0.014,0.246,0.034,0.55,0.062c0.094,0.009,0.142,0.063,0.142,0.164
	c0,0.104-0.047,0.157-0.142,0.157c-0.131-0.005-0.325-0.009-0.582-0.014c-0.529-0.019-0.909-0.027-1.14-0.027
	c-0.241,0-0.566,0.005-0.975,0.014c-0.498,0.019-0.791,0.027-0.88,0.027c-0.073,0-0.11-0.053-0.11-0.157
	c0-0.096,0.037-0.15,0.11-0.164c0.32-0.027,0.514-0.053,0.582-0.075c0.125-0.032,0.217-0.096,0.275-0.191
	c0.073-0.132,0.11-0.627,0.11-1.483v-2.071c0-0.615-0.037-1.007-0.11-1.176c-0.084-0.196-0.23-0.294-0.44-0.294
	c-0.026,0-0.047,0-0.063,0l-0.433,0.027c-0.037,0-0.063,0-0.079,0c-0.089,0-0.139-0.053-0.149-0.157c0-0.022,0-0.043,0-0.062
	c0-0.077,0.065-0.128,0.197-0.15c0.817-0.137,1.667-0.342,2.547-0.615c0.126,0,0.189,0.039,0.189,0.116
	C280.265,123.499,280.254,123.896,280.254,124.429z"/>
<path fill="#B3903D" d="M288.037,125.604c0-0.569-0.026-0.964-0.079-1.183c-0.068-0.191-0.226-0.287-0.472-0.287
	c-0.053,0-0.095,0-0.126,0l-0.417,0.027c-0.042,0-0.074,0-0.094,0c-0.063,0-0.1-0.053-0.11-0.157
	c-0.005-0.041-0.008-0.068-0.008-0.082c0-0.068,0.06-0.111,0.181-0.13c0.891-0.178,1.761-0.392,2.61-0.643
	c0.125,0,0.188,0.048,0.188,0.144c-0.042,0.911-0.063,1.738-0.063,2.481v1.832c0,0.848,0.037,1.347,0.11,1.497
	c0.063,0.101,0.178,0.164,0.346,0.191c0.079,0.014,0.27,0.029,0.574,0.048c0.073,0.009,0.11,0.068,0.11,0.178
	c0,0.114-0.037,0.171-0.11,0.171c-0.131-0.005-0.33-0.009-0.597-0.014c-0.55-0.019-0.946-0.027-1.187-0.027
	c-0.068,0-0.676,0.014-1.824,0.041c-0.105,0-0.157-0.057-0.157-0.171c0-0.118,0.047-0.178,0.142-0.178
	c0.293-0.019,0.487-0.039,0.582-0.062c0.125-0.036,0.214-0.096,0.267-0.178c0.089-0.128,0.134-0.424,0.134-0.889v-0.608V125.604z
	 M288.737,119.254c0.288,0,0.545,0.107,0.77,0.321c0.199,0.187,0.299,0.395,0.299,0.622c0,0.255-0.125,0.483-0.377,0.684
	c-0.215,0.173-0.445,0.26-0.691,0.26c-0.299,0-0.566-0.109-0.802-0.328c-0.199-0.187-0.298-0.392-0.298-0.615
	c0-0.265,0.128-0.494,0.385-0.69C288.236,119.338,288.475,119.254,288.737,119.254z"/>
<path fill="#B3903D" d="M295.756,123.096c0.755,0,1.41,0.107,1.965,0.321c0.43,0.15,0.645,0.371,0.645,0.663
	c0,0.615-0.236,0.923-0.708,0.923c-0.309,0-0.631-0.289-0.967-0.868c-0.246-0.392-0.529-0.588-0.849-0.588
	c-0.645,0-1.132,0.31-1.462,0.93c-0.272,0.515-0.409,1.185-0.409,2.01c0,0.911,0.27,1.627,0.81,2.146
	c0.414,0.401,0.891,0.602,1.431,0.602c0.493,0,0.901-0.089,1.227-0.267c0.267-0.146,0.542-0.385,0.825-0.718
	c0.037-0.055,0.079-0.082,0.126-0.082c0.037,0,0.089,0.022,0.157,0.068c0.083,0.041,0.125,0.084,0.125,0.13
	c0,0.022-0.008,0.05-0.023,0.082c-0.66,0.979-1.632,1.47-2.917,1.47c-1.164,0-2.088-0.355-2.775-1.066
	c-0.592-0.615-0.889-1.381-0.889-2.297c0-1.039,0.401-1.898,1.203-2.577C293.964,123.39,294.792,123.096,295.756,123.096z"/>
</svg>
