<?xml version="1.0" encoding="utf-8"?>
<!-- Generator: Adobe Illustrator 15.1.0, SVG Export Plug-In . SVG Version: 6.00 Build 0)  -->
<!DOCTYPE svg PUBLIC "-//W3C//DTD SVG 1.1//EN" "http://www.w3.org/Graphics/SVG/1.1/DTD/svg11.dtd">
<svg version="1.1" id="レイヤー_1" xmlns="http://www.w3.org/2000/svg" xmlns:xlink="http://www.w3.org/1999/xlink" x="0px"
	 y="0px" width="85.04px" height="85.04px" viewBox="0 0 85.04 85.04" enable-background="new 0 0 85.04 85.04"
	 xml:space="preserve">
<ellipse cx="32.5" cy="23.417" rx="9" ry="12.917"/>
<ellipse cx="56" cy="24.167" rx="9" ry="12.917"/>
<ellipse cx="73.166" cy="43.75" rx="9" ry="12.917"/>
<ellipse cx="15.834" cy="42.937" rx="9" ry="12.917"/>
<path d="M39.5,67.5c0,0,4.667-2.334,8.667,0s10.833,4.167,13.5,2.167S71,65.668,62.5,53.334c-2.833-5.334-3.999-3.5-14.666-17
	c-2.667-4.333-6.834-1.666-7.5,0.75s-12.167,16.417-14,16.25S19.167,65.5,23.5,66.667s1.333,2.167,1.333,2.167l3.5,0.833l2,0.855
	h4.5"/>
</svg>
