<?xml version="1.0" encoding="utf-8"?>
<!-- Generator: Adobe Illustrator 15.1.0, SVG Export Plug-In . SVG Version: 6.00 Build 0)  -->
<!DOCTYPE svg PUBLIC "-//W3C//DTD SVG 1.1//EN" "http://www.w3.org/Graphics/SVG/1.1/DTD/svg11.dtd">
<svg version="1.1" id="レイヤー_1" xmlns="http://www.w3.org/2000/svg" xmlns:xlink="http://www.w3.org/1999/xlink" x="0px"
	 y="0px" width="85.04px" height="85.04px" viewBox="0 0 85.04 85.04" enable-background="new 0 0 85.04 85.04"
	 xml:space="preserve">
<ellipse cx="56.5" cy="57.605" rx="9" ry="12.916"/>
<ellipse cx="33" cy="56.855" rx="9" ry="12.917"/>
<ellipse cx="15.834" cy="37.272" rx="9" ry="12.917"/>
<ellipse cx="73.166" cy="38.085" rx="9" ry="12.917"/>
<path d="M49.5,13.522c0,0-4.667,2.334-8.667,0S30,9.355,27.333,11.355S18,15.354,26.5,27.688c2.833,5.334,3.999,3.5,14.666,17.001
	c2.667,4.333,6.834,1.665,7.5-0.751c0.667-2.416,12.167-16.417,14-16.25c1.834,0.167,7.166-12.166,2.833-13.333
	s-1.333-2.167-1.333-2.167l-3.5-0.833l-2-0.855h-4.5"/>
</svg>
